# Blender v2.69 (sub 0) OBJ File: 'farm.blend'
# www.blender.org
v -0.812588 -0.004665 -0.094644
v -0.460837 -0.004665 -0.094644
v -0.460837 -0.004665 0.484069
v -0.812588 -0.004665 0.484069
v -0.812588 0.160037 -0.094644
v -0.460837 0.160037 -0.094644
v -0.460837 0.160037 0.484069
v -0.812588 0.160037 0.484069
v -0.673625 0.337021 -0.094644
v -0.599800 0.337021 -0.094644
v -0.599800 0.337021 0.484069
v -0.673625 0.337021 0.484069
vn 0.000000 0.000000 -1.000000
vn 1.000000 0.000000 -0.000000
vn 0.000000 0.000000 1.000000
vn -1.000000 0.000000 0.000000
vn 0.000000 -1.000000 0.000000
vn -0.786525 0.617558 0.000000
vn 0.000000 1.000000 0.000000
vn 0.786525 0.617559 0.000000
vn -0.786525 0.617559 0.000000
vn 0.786525 0.617558 -0.000000
s off
f 5//1 6//1 1//1
f 6//2 7//2 2//2
f 7//3 8//3 3//3
f 8//4 5//4 4//4
f 1//5 2//5 4//5
f 5//6 8//6 9//6
f 12//7 11//7 9//7
f 8//3 7//3 12//3
f 7//8 6//8 11//8
f 6//1 5//1 10//1
f 6//1 2//1 1//1
f 7//2 3//2 2//2
f 8//3 4//3 3//3
f 5//4 1//4 4//4
f 2//5 3//5 4//5
f 8//9 12//9 9//9
f 11//7 10//7 9//7
f 7//3 11//3 12//3
f 6//10 10//10 11//10
f 5//1 9//1 10//1
v 0.428136 0.506402 -0.358480
v 0.428136 0.814265 -0.398476
v 0.564304 0.506402 -0.302078
v 0.592585 0.814265 -0.330359
v 0.620706 0.506402 -0.165910
v 0.660702 0.814265 -0.165910
v 0.564304 0.506402 -0.029743
v 0.592585 0.814265 -0.001462
v 0.428136 0.506402 0.026659
v 0.428136 0.814265 0.066655
v 0.291969 0.506402 -0.029743
v 0.263688 0.814265 -0.001462
v 0.235567 0.506402 -0.165911
v 0.195571 0.814265 -0.165911
v 0.291969 0.506402 -0.302078
v 0.263688 0.814265 -0.330359
v 0.428136 0.930769 -0.284038
v 0.511665 0.930769 -0.249439
v 0.546264 0.930769 -0.165911
v 0.511665 0.930769 -0.082382
v 0.428136 0.930769 -0.047783
v 0.344607 0.930769 -0.082382
v 0.310009 0.930769 -0.165911
v 0.344607 0.930769 -0.249439
v 0.338797 0.002761 -0.235878
v 0.338797 0.002761 -0.266005
v 0.368923 0.002761 -0.266005
v 0.368923 0.002761 -0.235878
v 0.338797 0.506684 -0.235878
v 0.338797 0.506684 -0.266005
v 0.368923 0.506684 -0.266005
v 0.368923 0.506684 -0.235878
v 0.511601 0.002761 -0.235878
v 0.511601 0.002761 -0.266005
v 0.541728 0.002761 -0.266005
v 0.541728 0.002761 -0.235878
v 0.511601 0.506684 -0.235878
v 0.511601 0.506684 -0.266005
v 0.541728 0.506684 -0.266005
v 0.541728 0.506684 -0.235878
v 0.511601 0.002761 -0.052369
v 0.511601 0.002761 -0.082496
v 0.541728 0.002761 -0.082496
v 0.541728 0.002761 -0.052369
v 0.511601 0.506684 -0.052369
v 0.511601 0.506684 -0.082496
v 0.541728 0.506684 -0.082496
v 0.541728 0.506684 -0.052369
v 0.338797 0.002761 -0.052369
v 0.338797 0.002761 -0.082496
v 0.368923 0.002761 -0.082496
v 0.368923 0.002761 -0.052369
v 0.338797 0.506684 -0.052369
v 0.338797 0.506684 -0.082496
v 0.368923 0.506684 -0.082496
v 0.368923 0.506684 -0.052369
vn 0.379956 -0.119170 -0.917296
vn 0.917296 -0.119170 -0.379956
vn 0.917296 -0.119171 0.379956
vn 0.379956 -0.119170 0.917296
vn -0.379957 -0.119170 0.917296
vn -0.917296 -0.119170 0.379956
vn -0.283388 0.672026 -0.684159
vn -0.379956 -0.119170 -0.917296
vn -0.917296 -0.119170 -0.379956
vn 0.000000 -1.000000 0.000002
vn 0.000000 1.000000 0.000000
vn -0.684159 0.672025 -0.283388
vn -0.684159 0.672025 0.283388
vn -0.283388 0.672025 0.684159
vn 0.283388 0.672025 0.684159
vn 0.684159 0.672026 0.283387
vn 0.684159 0.672025 -0.283388
vn 0.283388 0.672025 -0.684159
vn -1.000000 0.000000 0.000000
vn 0.000000 0.000000 -1.000000
vn 1.000000 0.000000 0.000000
vn 0.000000 0.000000 1.000000
vn 0.000000 -1.000000 0.000000
vn 0.917296 -0.119171 -0.379956
vn 0.917296 -0.119170 0.379956
vn -0.379956 -0.119170 0.917296
vn -0.283388 0.672025 -0.684159
vn 0.684159 0.672025 0.283389
vn 0.684159 0.672026 -0.283388
s off
f 13//11 14//11 15//11
f 15//12 16//12 17//12
f 17//13 18//13 19//13
f 19//14 20//14 21//14
f 21//15 22//15 23//15
f 23//16 24//16 25//16
f 14//17 28//17 29//17
f 27//18 28//18 13//18
f 25//19 26//19 27//19
f 13//20 15//20 27//20
f 31//21 30//21 32//21
f 28//22 26//22 36//22
f 26//23 24//23 35//23
f 24//24 22//24 34//24
f 22//25 20//25 33//25
f 20//26 18//26 32//26
f 18//27 16//27 31//27
f 16//28 14//28 30//28
f 41//29 42//29 37//29
f 42//30 43//30 38//30
f 43//31 44//31 39//31
f 44//32 41//32 40//32
f 37//33 38//33 40//33
f 44//21 43//21 41//21
f 49//29 50//29 45//29
f 50//30 51//30 46//30
f 51//31 52//31 47//31
f 52//32 49//32 48//32
f 45//33 46//33 48//33
f 52//21 51//21 49//21
f 57//29 58//29 53//29
f 58//30 59//30 54//30
f 59//31 60//31 55//31
f 60//32 57//32 56//32
f 53//33 54//33 56//33
f 60//21 59//21 57//21
f 65//29 66//29 61//29
f 66//30 67//30 62//30
f 67//31 68//31 63//31
f 68//32 65//32 64//32
f 61//33 62//33 64//33
f 68//21 67//21 65//21
f 14//11 16//11 15//11
f 16//34 18//34 17//34
f 18//35 20//35 19//35
f 20//14 22//14 21//14
f 22//36 24//36 23//36
f 24//16 26//16 25//16
f 28//37 36//37 29//37
f 28//18 14//18 13//18
f 26//19 28//19 27//19
f 15//33 17//33 19//33
f 27//33 15//33 19//33
f 27//33 19//33 21//33
f 25//33 27//33 23//33
f 27//33 21//33 23//33
f 30//21 29//21 32//21
f 29//21 36//21 32//21
f 32//21 36//21 33//21
f 36//21 35//21 33//21
f 35//21 34//21 33//21
f 26//22 35//22 36//22
f 24//23 34//23 35//23
f 22//24 33//24 34//24
f 20//25 32//25 33//25
f 18//38 31//38 32//38
f 16//39 30//39 31//39
f 14//28 29//28 30//28
f 42//29 38//29 37//29
f 43//30 39//30 38//30
f 44//31 40//31 39//31
f 41//32 37//32 40//32
f 38//33 39//33 40//33
f 43//21 42//21 41//21
f 50//29 46//29 45//29
f 51//30 47//30 46//30
f 52//31 48//31 47//31
f 49//32 45//32 48//32
f 46//33 47//33 48//33
f 51//21 50//21 49//21
f 58//29 54//29 53//29
f 59//30 55//30 54//30
f 60//31 56//31 55//31
f 57//32 53//32 56//32
f 54//33 55//33 56//33
f 59//21 58//21 57//21
f 66//29 62//29 61//29
f 67//30 63//30 62//30
f 68//31 64//31 63//31
f 65//32 61//32 64//32
f 62//33 63//33 64//33
f 67//21 66//21 65//21
v 0.060297 -0.001417 0.608090
v 0.060297 -0.001417 0.154099
v 0.514289 -0.001417 0.154099
v 0.514289 -0.001417 0.608090
v 0.060297 0.211157 0.608090
v 0.060297 0.211157 0.154099
v 0.514289 0.211157 0.154099
v 0.514289 0.211157 0.608090
v 0.060297 0.439583 0.428736
v 0.060297 0.439583 0.333453
v 0.514289 0.439583 0.333453
v 0.514289 0.439583 0.428736
vn -1.000000 0.000000 0.000000
vn 0.000000 0.000000 -1.000000
vn 1.000000 0.000000 0.000000
vn 0.000000 0.000000 1.000000
vn 0.000000 -1.000000 0.000000
vn 0.000000 0.617559 0.786525
vn 0.000000 1.000000 0.000000
vn 1.000000 -0.000001 0.000000
vn 0.000000 0.617559 -0.786525
vn 1.000000 0.000001 0.000000
s off
f 73//40 74//40 69//40
f 74//41 75//41 70//41
f 75//42 76//42 71//42
f 76//43 73//43 72//43
f 69//44 70//44 72//44
f 73//45 76//45 77//45
f 80//46 79//46 77//46
f 76//47 75//47 80//47
f 75//48 74//48 79//48
f 74//40 73//40 78//40
f 74//40 70//40 69//40
f 75//41 71//41 70//41
f 76//42 72//42 71//42
f 73//43 69//43 72//43
f 70//44 71//44 72//44
f 76//45 80//45 77//45
f 79//46 78//46 77//46
f 75//49 79//49 80//49
f 74//48 78//48 79//48
f 73//40 77//40 78//40
