# Blender v2.69 (sub 0) OBJ File: ''
# www.blender.org
o Sphere
v -0.273914 3.504700 0.034249
v -0.505691 3.349832 0.034249
v -0.660560 3.118054 0.034249
v -0.714942 2.844655 0.034249
v -0.660560 2.571254 0.034249
v -0.505691 2.339477 0.034249
v -0.273914 2.184609 0.034249
v -0.253103 3.504700 -0.070377
v -0.467237 3.349832 -0.159074
v -0.610317 3.118054 -0.218340
v -0.660560 2.844655 -0.239151
v -0.610317 2.571254 -0.218340
v -0.467237 2.339477 -0.159074
v -0.253103 2.184609 -0.070377
v -0.193837 3.504700 -0.159074
v -0.357728 3.349832 -0.322966
v -0.467237 3.118054 -0.432474
v -0.505691 2.844655 -0.470929
v -0.467237 2.571254 -0.432474
v -0.357728 2.339477 -0.322966
v -0.193837 2.184609 -0.159074
v -0.000514 2.130226 0.034249
v -0.105140 3.504700 -0.218340
v -0.193837 3.349832 -0.432474
v -0.253103 3.118054 -0.575554
v -0.273914 2.844655 -0.625797
v -0.253103 2.571254 -0.575554
v -0.193837 2.339477 -0.432474
v -0.105140 2.184609 -0.218340
v -0.000514 3.504700 -0.239151
v -0.000514 3.349832 -0.470929
v -0.000514 3.118054 -0.625797
v -0.000514 2.844655 -0.680180
v -0.000514 2.571254 -0.625797
v -0.000514 2.339477 -0.470929
v -0.000514 2.184609 -0.239151
v -0.000514 3.559083 0.034249
v 0.104112 3.504700 -0.218340
v 0.192809 3.349832 -0.432474
v 0.252075 3.118054 -0.575554
v 0.272886 2.844655 -0.625797
v 0.252075 2.571254 -0.575554
v 0.192809 2.339477 -0.432474
v 0.104112 2.184609 -0.218340
v 0.192809 3.504700 -0.159074
v 0.356700 3.349832 -0.322966
v 0.466209 3.118054 -0.432474
v 0.504663 2.844655 -0.470929
v 0.466209 2.571254 -0.432474
v 0.356700 2.339477 -0.322966
v 0.192809 2.184609 -0.159074
v 0.252074 3.504700 -0.070377
v 0.466209 3.349832 -0.159074
v 0.609289 3.118054 -0.218340
v 0.659532 2.844655 -0.239151
v 0.609289 2.571254 -0.218340
v 0.466209 2.339477 -0.159074
v 0.252074 2.184609 -0.070377
v 0.272886 3.504700 0.034249
v 0.504663 3.349832 0.034249
v 0.659532 3.118054 0.034249
v 0.713914 2.844655 0.034249
v 0.659532 2.571254 0.034249
v 0.504663 2.339477 0.034249
v 0.272886 2.184609 0.034249
v 0.252074 3.504700 0.138874
v 0.466209 3.349832 0.227571
v 0.609289 3.118054 0.286837
v 0.659531 2.844655 0.307648
v 0.609289 2.571254 0.286837
v 0.466209 2.339477 0.227571
v 0.252074 2.184609 0.138874
v 0.192809 3.504700 0.227571
v 0.356700 3.349832 0.391463
v 0.466209 3.118054 0.500971
v 0.504663 2.844655 0.539425
v 0.466209 2.571254 0.500971
v 0.356700 2.339477 0.391463
v 0.192809 2.184609 0.227571
v 0.104112 3.504700 0.286837
v 0.192809 3.349832 0.500971
v 0.252074 3.118054 0.644051
v 0.272886 2.844655 0.694294
v 0.252074 2.571254 0.644051
v 0.192809 2.339477 0.500971
v 0.104112 2.184609 0.286837
v -0.000514 3.504700 0.307648
v -0.000514 3.349832 0.539425
v -0.000514 3.118054 0.694294
v -0.000514 2.844655 0.748677
v -0.000514 2.571254 0.694294
v -0.000514 2.339477 0.539425
v -0.000514 2.184609 0.307648
v -0.105140 3.504700 0.286837
v -0.193837 3.349832 0.500971
v -0.253103 3.118054 0.644051
v -0.273914 2.844655 0.694294
v -0.253103 2.571254 0.644051
v -0.193837 2.339477 0.500971
v -0.105140 2.184609 0.286837
v -0.193837 3.504700 0.227571
v -0.357728 3.349832 0.391463
v -0.467237 3.118054 0.500971
v -0.505691 2.844655 0.539425
v -0.467237 2.571254 0.500971
v -0.357728 2.339477 0.391463
v -0.193837 2.184609 0.227571
v -0.253102 3.504700 0.138874
v -0.467237 3.349832 0.227571
v -0.610317 3.118054 0.286837
v -0.660559 2.844655 0.307648
v -0.610317 2.571254 0.286837
v -0.467237 2.339477 0.227571
v -0.253102 2.184609 0.138874
v 0.000000 0.006940 -1.000000
v 0.382683 0.006940 -0.923880
v 0.707107 0.006940 -0.707107
v 0.923880 0.006940 -0.382683
v 1.000000 0.006940 0.000000
v 0.000000 3.264705 0.000000
v 0.923880 0.006940 0.382684
v 0.707107 0.006940 0.707107
v 0.382683 0.006940 0.923880
v 0.000000 0.006940 1.000000
v -0.382683 0.006940 0.923880
v -0.707107 0.006940 0.707107
v -0.923880 0.006940 0.382684
v -1.000000 0.006940 -0.000000
v -0.923879 0.006940 -0.382684
v -0.707107 0.006940 -0.707107
v -0.382683 0.006940 -0.923880
vn -0.403088 -0.915159 0.000000
vn -0.718833 -0.695151 0.000000
vn -0.372387 -0.915159 -0.154241
vn -0.927274 -0.374340 0.000000
vn -0.664113 -0.695151 -0.275094
vn -1.000000 0.000000 0.000000
vn -0.856685 -0.374340 -0.354839
vn -0.927274 0.374340 0.000000
vn -0.923856 0.000000 -0.382672
vn -0.718833 0.695151 0.000000
vn -0.856685 0.374340 -0.354839
vn -0.403088 0.915159 0.000000
vn -0.664113 0.695151 -0.275094
vn -0.285012 -0.915159 -0.285012
vn -0.508286 -0.695151 -0.508286
vn -0.655660 -0.374340 -0.655660
vn -0.707083 0.000000 -0.707083
vn -0.655660 0.374340 -0.655660
vn -0.372387 0.915159 -0.154241
vn -0.508286 0.695151 -0.508286
vn -0.154241 -0.915159 -0.372387
vn -0.275094 -0.695151 -0.664113
vn -0.354839 -0.374340 -0.856685
vn -0.382672 0.000000 -0.923856
vn -0.354839 0.374340 -0.856685
vn -0.285012 0.915159 -0.285012
vn -0.275094 0.695151 -0.664113
vn 0.000000 -0.915159 -0.403088
vn 0.000000 -0.695151 -0.718833
vn 0.000000 -0.374340 -0.927274
vn 0.000000 0.000000 -1.000000
vn 0.000000 0.374340 -0.927274
vn -0.154241 0.915159 -0.372387
vn 0.000000 0.695151 -0.718833
vn 0.154241 -0.915159 -0.372387
vn 0.275094 -0.695151 -0.664113
vn 0.354839 -0.374340 -0.856685
vn 0.382672 0.000000 -0.923856
vn 0.354839 0.374340 -0.856685
vn 0.000000 0.915159 -0.403088
vn 0.275094 0.695151 -0.664113
vn 0.285012 -0.915159 -0.285012
vn 0.508286 -0.695151 -0.508286
vn 0.655660 -0.374340 -0.655660
vn 0.707083 0.000000 -0.707083
vn 0.655660 0.374340 -0.655660
vn 0.154241 0.915159 -0.372387
vn 0.508286 0.695151 -0.508286
vn 0.372387 -0.915159 -0.154241
vn 0.664113 -0.695151 -0.275094
vn 0.856685 -0.374340 -0.354839
vn 0.923856 0.000000 -0.382672
vn 0.856685 0.374340 -0.354839
vn 0.285012 0.915159 -0.285012
vn 0.664113 0.695151 -0.275094
vn 0.403088 -0.915159 0.000000
vn 0.718833 -0.695151 0.000000
vn 0.927274 -0.374340 0.000000
vn 1.000000 0.000000 0.000000
vn 0.927274 0.374340 0.000000
vn 0.372387 0.915159 -0.154241
vn 0.718833 0.695151 0.000000
vn 0.372387 -0.915159 0.154241
vn 0.664113 -0.695151 0.275094
vn 0.856685 -0.374340 0.354839
vn 0.923856 0.000000 0.382672
vn 0.856685 0.374340 0.354839
vn 0.403088 0.915159 0.000000
vn 0.664113 0.695151 0.275094
vn 0.285012 -0.915159 0.285012
vn 0.508286 -0.695151 0.508286
vn 0.655660 -0.374340 0.655660
vn 0.707083 0.000000 0.707083
vn 0.655660 0.374340 0.655660
vn 0.372387 0.915159 0.154241
vn 0.508286 0.695151 0.508286
vn 0.154241 -0.915159 0.372387
vn 0.275094 -0.695151 0.664113
vn 0.354839 -0.374340 0.856685
vn 0.382672 0.000000 0.923856
vn 0.354839 0.374340 0.856685
vn 0.285012 0.915159 0.285012
vn 0.275094 0.695151 0.664113
vn 0.000000 -0.915159 0.403088
vn 0.000000 -0.695151 0.718833
vn 0.000000 -0.374340 0.927274
vn 0.000000 0.000000 1.000000
vn 0.000000 0.374340 0.927274
vn 0.154241 0.915159 0.372387
vn 0.000000 0.695151 0.718833
vn -0.154241 -0.915159 0.372387
vn -0.275094 -0.695151 0.664113
vn -0.354839 -0.374340 0.856685
vn -0.382672 0.000000 0.923856
vn -0.354839 0.374340 0.856685
vn 0.000000 0.915159 0.403088
vn -0.275094 0.695151 0.664113
vn -0.285012 -0.915159 0.285012
vn -0.508286 -0.695151 0.508286
vn -0.655660 -0.374340 0.655660
vn -0.707083 0.000000 0.707083
vn -0.655660 0.374340 0.655660
vn -0.154241 0.915159 0.372387
vn -0.508286 0.695151 0.508286
vn -0.372387 -0.915159 0.154241
vn -0.664113 -0.695151 0.275094
vn -0.856685 -0.374340 0.354839
vn -0.923856 0.000000 0.382672
vn -0.856685 0.374340 0.354839
vn -0.285012 0.915159 0.285012
vn -0.664113 0.695151 0.275094
vn 0.000000 -1.000000 0.000000
vn 0.000000 1.000000 0.000000
vn -0.372387 0.915159 0.154241
vn -0.590136 -0.550829 -0.590136
vn -0.319376 -0.550829 -0.771050
vn 0.000000 -0.550829 -0.834590
vn 0.319376 -0.550829 -0.771050
vn -0.771050 -0.550829 -0.319376
vn -0.834590 -0.550829 0.000000
vn -0.771050 -0.550829 0.319376
vn -0.590136 -0.550829 0.590136
vn -0.319376 -0.550829 0.771050
vn 0.000000 -0.550829 0.834590
vn 0.319376 -0.550829 0.771050
vn 0.590136 -0.550829 0.590136
vn 0.771050 -0.550829 0.319376
vn 0.834590 -0.550829 0.000000
vn 0.771050 -0.550829 -0.319376
vn 0.590136 -0.550829 -0.590136
s 1
f 7//1 6//2 14//3
f 6//2 5//4 13//5
f 5//4 4//6 12//7
f 4//6 3//8 11//9
f 3//8 2//10 10//11
f 2//10 1//12 9//13
f 14//3 13//5 21//14
f 13//5 12//7 20//15
f 12//7 11//9 19//16
f 11//9 10//11 18//17
f 10//11 9//13 17//18
f 9//13 8//19 16//20
f 21//14 20//15 29//21
f 20//15 19//16 28//22
f 19//16 18//17 27//23
f 18//17 17//18 26//24
f 17//18 16//20 25//25
f 16//20 15//26 24//27
f 29//21 28//22 36//28
f 28//22 27//23 35//29
f 27//23 26//24 34//30
f 26//24 25//25 33//31
f 25//25 24//27 32//32
f 24//27 23//33 31//34
f 36//28 35//29 44//35
f 35//29 34//30 43//36
f 34//30 33//31 42//37
f 33//31 32//32 41//38
f 32//32 31//34 40//39
f 31//34 30//40 39//41
f 44//35 43//36 51//42
f 43//36 42//37 50//43
f 42//37 41//38 49//44
f 41//38 40//39 48//45
f 40//39 39//41 47//46
f 39//41 38//47 46//48
f 51//42 50//43 58//49
f 50//43 49//44 57//50
f 49//44 48//45 56//51
f 48//45 47//46 55//52
f 47//46 46//48 54//53
f 46//48 45//54 53//55
f 58//49 57//50 65//56
f 57//50 56//51 64//57
f 56//51 55//52 63//58
f 55//52 54//53 62//59
f 54//53 53//55 61//60
f 53//55 52//61 60//62
f 65//56 64//57 72//63
f 64//57 63//58 71//64
f 63//58 62//59 70//65
f 62//59 61//60 69//66
f 61//60 60//62 68//67
f 60//62 59//68 67//69
f 72//63 71//64 79//70
f 71//64 70//65 78//71
f 70//65 69//66 77//72
f 69//66 68//67 76//73
f 68//67 67//69 75//74
f 67//69 66//75 74//76
f 79//70 78//71 86//77
f 78//71 77//72 85//78
f 77//72 76//73 84//79
f 76//73 75//74 83//80
f 75//74 74//76 82//81
f 74//76 73//82 81//83
f 86//77 85//78 93//84
f 85//78 84//79 92//85
f 84//79 83//80 91//86
f 83//80 82//81 90//87
f 82//81 81//83 89//88
f 81//83 80//89 88//90
f 93//84 92//85 100//91
f 92//85 91//86 99//92
f 91//86 90//87 98//93
f 90//87 89//88 97//94
f 89//88 88//90 96//95
f 88//90 87//96 95//97
f 100//91 99//92 107//98
f 99//92 98//93 106//99
f 98//93 97//94 105//100
f 97//94 96//95 104//101
f 96//95 95//97 103//102
f 95//97 94//103 102//104
f 107//98 106//99 114//105
f 106//99 105//100 113//106
f 105//100 104//101 112//107
f 104//101 103//102 111//108
f 103//102 102//104 110//109
f 102//104 101//110 109//111
f 22//112 7//1 14//3
f 1//12 37//113 8//19
f 22//112 14//3 21//14
f 8//19 37//113 15//26
f 22//112 21//14 29//21
f 15//26 37//113 23//33
f 22//112 29//21 36//28
f 23//33 37//113 30//40
f 22//112 36//28 44//35
f 30//40 37//113 38//47
f 22//112 44//35 51//42
f 38//47 37//113 45//54
f 22//112 51//42 58//49
f 45//54 37//113 52//61
f 22//112 58//49 65//56
f 52//61 37//113 59//68
f 22//112 65//56 72//63
f 59//68 37//113 66//75
f 22//112 72//63 79//70
f 66//75 37//113 73//82
f 22//112 79//70 86//77
f 73//82 37//113 80//89
f 22//112 86//77 93//84
f 80//89 37//113 87//96
f 22//112 93//84 100//91
f 87//96 37//113 94//103
f 22//112 100//91 107//98
f 94//103 37//113 101//110
f 22//112 107//98 114//105
f 101//110 37//113 108//114
f 22//112 114//105 7//1
f 114//105 113//106 7//1
f 113//106 112//107 5//4
f 112//107 111//108 5//4
f 111//108 110//109 4//6
f 110//109 109//111 3//8
f 109//111 108//114 2//10
f 108//114 37//113 1//12
f 130//115 120//113 131//116
f 115//117 120//113 116//118
f 129//119 120//113 130//115
f 128//120 120//113 129//119
f 127//121 120//113 128//120
f 126//122 120//113 127//121
f 125//123 120//113 126//122
f 124//124 120//113 125//123
f 123//125 120//113 124//124
f 122//126 120//113 123//125
f 121//127 120//113 122//126
f 119//128 120//113 121//127
f 118//129 120//113 119//128
f 117//130 120//113 118//129
f 131//116 120//113 115//117
f 116//118 120//113 117//130
f 115//117 116//118 131//116
f 6//2 13//5 14//3
f 5//4 12//7 13//5
f 4//6 11//9 12//7
f 3//8 10//11 11//9
f 2//10 9//13 10//11
f 1//12 8//19 9//13
f 13//5 20//15 21//14
f 12//7 19//16 20//15
f 11//9 18//17 19//16
f 10//11 17//18 18//17
f 9//13 16//20 17//18
f 8//19 15//26 16//20
f 20//15 28//22 29//21
f 19//16 27//23 28//22
f 18//17 26//24 27//23
f 17//18 25//25 26//24
f 16//20 24//27 25//25
f 15//26 23//33 24//27
f 28//22 35//29 36//28
f 27//23 34//30 35//29
f 26//24 33//31 34//30
f 25//25 32//32 33//31
f 24//27 31//34 32//32
f 23//33 30//40 31//34
f 35//29 43//36 44//35
f 34//30 42//37 43//36
f 33//31 41//38 42//37
f 32//32 40//39 41//38
f 31//34 39//41 40//39
f 30//40 38//47 39//41
f 43//36 50//43 51//42
f 42//37 49//44 50//43
f 41//38 48//45 49//44
f 40//39 47//46 48//45
f 39//41 46//48 47//46
f 38//47 45//54 46//48
f 50//43 57//50 58//49
f 49//44 56//51 57//50
f 48//45 55//52 56//51
f 47//46 54//53 55//52
f 46//48 53//55 54//53
f 45//54 52//61 53//55
f 57//50 64//57 65//56
f 56//51 63//58 64//57
f 55//52 62//59 63//58
f 54//53 61//60 62//59
f 53//55 60//62 61//60
f 52//61 59//68 60//62
f 64//57 71//64 72//63
f 63//58 70//65 71//64
f 62//59 69//66 70//65
f 61//60 68//67 69//66
f 60//62 67//69 68//67
f 59//68 66//75 67//69
f 71//64 78//71 79//70
f 70//65 77//72 78//71
f 69//66 76//73 77//72
f 68//67 75//74 76//73
f 67//69 74//76 75//74
f 66//75 73//82 74//76
f 78//71 85//78 86//77
f 77//72 84//79 85//78
f 76//73 83//80 84//79
f 75//74 82//81 83//80
f 74//76 81//83 82//81
f 73//82 80//89 81//83
f 85//78 92//85 93//84
f 84//79 91//86 92//85
f 83//80 90//87 91//86
f 82//81 89//88 90//87
f 81//83 88//90 89//88
f 80//89 87//96 88//90
f 92//85 99//92 100//91
f 91//86 98//93 99//92
f 90//87 97//94 98//93
f 89//88 96//95 97//94
f 88//90 95//97 96//95
f 87//96 94//103 95//97
f 99//92 106//99 107//98
f 98//93 105//100 106//99
f 97//94 104//101 105//100
f 96//95 103//102 104//101
f 95//97 102//104 103//102
f 94//103 101//110 102//104
f 106//99 113//106 114//105
f 105//100 112//107 113//106
f 104//101 111//108 112//107
f 103//102 110//109 111//108
f 102//104 109//111 110//109
f 101//110 108//114 109//111
f 113//106 6//2 7//1
f 6//2 113//106 5//4
f 111//108 4//6 5//4
f 110//109 3//8 4//6
f 109//111 2//10 3//8
f 108//114 1//12 2//10
f 128//120 126//122 127//121
f 128//120 125//123 126//122
f 131//116 116//118 130//115
f 116//118 117//130 130//115
f 130//115 117//130 129//119
f 123//125 121//127 122//126
f 123//125 119//128 121//127
f 124//124 119//128 123//125
f 118//129 119//128 124//124
f 117//130 118//129 124//124
f 129//119 117//130 124//124
f 128//120 129//119 125//123
f 129//119 124//124 125//123
