# Blender v2.69 (sub 0) OBJ File: 'backpack.blend'
# www.blender.org
mtllib backpack.mtl
o Cube_Cube.033
v 0.027314 -0.288086 0.034156
v -0.117813 -0.291890 0.026924
v -0.129080 0.139219 0.026276
v 0.016047 0.143023 0.033508
v 0.057481 -0.253840 -0.589273
v -0.087646 -0.257643 -0.596505
v -0.096623 0.092481 -0.600514
v 0.048504 0.096285 -0.593282
v -0.227709 -0.233257 0.015823
v -0.235762 0.074893 0.015359
v -0.202998 -0.232045 -0.480735
v -0.210970 0.073014 -0.481194
v -0.242076 -0.181905 -0.090116
v -0.247419 0.022543 -0.090423
v -0.227723 -0.181963 -0.378122
v -0.233067 0.022485 -0.378430
v 0.079953 -0.238246 -0.032776
v 0.071222 0.095800 -0.033278
v 0.104204 -0.215500 -0.557776
v 0.096479 0.066386 -0.560646
v -0.089748 -0.076471 -0.649610
v -0.120364 -0.076348 -0.035262
v 0.055379 -0.072667 -0.642378
v 0.024763 -0.072544 -0.028031
v -0.183486 -0.078675 -0.485755
v -0.205724 -0.078585 -0.039516
v -0.207187 -0.079131 -0.377119
v -0.220576 -0.079077 -0.108437
v 0.102496 -0.070869 -0.590551
v 0.077363 -0.071230 -0.068653
v -0.119380 -0.184118 0.001678
v 0.056957 -0.166504 -0.624697
v -0.228096 -0.156226 -0.016932
v -0.242856 -0.130796 -0.101347
v 0.103936 -0.149191 -0.580781
v -0.088170 -0.170308 -0.631929
v 0.025747 -0.180314 0.008909
v -0.204934 -0.156320 -0.481714
v -0.229059 -0.130851 -0.378199
v 0.078739 -0.154738 -0.052335
v -0.092854 0.012408 -0.634019
v 0.020114 0.035241 0.008585
v -0.208961 -0.002245 -0.481935
v -0.231731 -0.028627 -0.378353
v 0.074373 0.012284 -0.052587
v -0.125013 0.031437 0.001353
v 0.052273 0.016212 -0.626788
v -0.232123 -0.002151 -0.017164
v -0.245527 -0.028571 -0.101501
v 0.099719 0.005806 -0.581440
v -0.119551 -0.130234 -0.023222
v 0.056486 -0.124334 -0.637423
v -0.205042 -0.117102 -0.032945
v -0.219981 -0.104633 -0.106936
v 0.103530 -0.112511 -0.588162
v -0.088641 -0.128138 -0.644655
v 0.025576 -0.126430 -0.015990
v -0.182501 -0.117193 -0.485254
v -0.206519 -0.104687 -0.377081
v 0.078223 -0.112985 -0.063942
v -0.091314 -0.025594 -0.644941
v 0.022759 -0.018653 -0.016152
v -0.184515 -0.040156 -0.485363
v -0.207855 -0.053575 -0.377158
v 0.076040 -0.029474 -0.064067
v -0.122368 -0.022457 -0.023384
v 0.053813 -0.021790 -0.637710
v -0.207055 -0.040065 -0.033060
v -0.221317 -0.053521 -0.107013
v 0.101299 -0.029398 -0.588304
v -0.116158 -0.183219 -0.006269
v 0.055764 -0.165986 -0.616907
v 0.100561 -0.148804 -0.573055
v -0.085734 -0.169704 -0.623929
v 0.025340 -0.179510 0.000765
v 0.076926 -0.154574 -0.057349
v -0.116329 -0.130683 -0.030469
v 0.055316 -0.124827 -0.629574
v 0.100197 -0.112975 -0.580350
v -0.086182 -0.128539 -0.636592
v 0.025170 -0.126974 -0.023446
v 0.076404 -0.113865 -0.068283
v -0.092854 0.012408 -0.634019
v 0.020114 0.035241 0.008585
v 0.074373 0.012284 -0.052587
v -0.125013 0.031437 0.001353
v 0.052273 0.016212 -0.626788
v 0.099719 0.005806 -0.581440
v -0.091314 -0.025594 -0.644941
v 0.022759 -0.018653 -0.016152
v 0.076040 -0.029474 -0.064067
v -0.122368 -0.022457 -0.023384
v 0.053813 -0.021790 -0.637710
v 0.101299 -0.029398 -0.588304
v -0.090743 0.012099 -0.627163
v 0.019802 0.034513 0.001584
v 0.072829 0.012050 -0.056893
v -0.122211 0.030791 -0.005481
v 0.051271 0.015812 -0.620109
v 0.096780 0.006155 -0.574810
v -0.089224 -0.025138 -0.638065
v 0.022388 -0.018224 -0.022577
v 0.074443 -0.028812 -0.067801
v -0.119625 -0.021946 -0.029633
v 0.052790 -0.021419 -0.631013
v 0.098410 -0.028403 -0.581620
v -0.117813 -0.291890 0.026924
v -0.129080 0.139219 0.026276
v -0.087646 -0.257643 -0.596505
v -0.096623 0.092481 -0.600514
v -0.227709 -0.233257 0.015823
v -0.235762 0.074893 0.015359
v -0.202998 -0.232045 -0.480735
v -0.210970 0.073014 -0.481194
v -0.121205 -0.275599 0.003268
v -0.131615 0.122703 0.002669
v -0.093199 -0.243462 -0.575684
v -0.101435 0.078845 -0.579932
v -0.222551 -0.221429 -0.010751
v -0.229991 0.063271 -0.011179
v -0.200307 -0.221474 -0.457119
v -0.207745 0.063121 -0.457547
v 0.030507 -0.255510 -0.416436
v -0.096054 -0.267189 -0.422741
v -0.105669 0.105508 -0.425813
v 0.019963 0.116778 -0.419555
v -0.209885 -0.232383 -0.342333
v -0.217880 0.073538 -0.342793
v -0.231724 -0.181947 -0.297848
v -0.237067 0.022501 -0.298156
v 0.070247 -0.210461 -0.412804
v 0.062578 0.086274 -0.414997
v -0.210919 -0.079116 -0.302232
v 0.067961 -0.059280 -0.446461
v 0.069477 -0.139183 -0.434861
v -0.232904 -0.130836 -0.301034
v -0.235576 -0.028612 -0.301188
v 0.065349 0.019343 -0.435400
v -0.210271 -0.104672 -0.301785
v 0.068902 -0.100932 -0.443427
v 0.066726 -0.017663 -0.443562
v -0.211607 -0.053560 -0.301862
v 0.067210 -0.139187 -0.430652
v 0.066645 -0.101812 -0.438969
v 0.065349 0.019343 -0.435400
v 0.066726 -0.017663 -0.443562
v 0.063405 0.019304 -0.431787
v 0.064753 -0.017000 -0.439754
v -0.096054 -0.267189 -0.422741
v -0.105669 0.105508 -0.425813
v -0.209885 -0.232383 -0.342333
v -0.217880 0.073538 -0.342793
v -0.101005 -0.252419 -0.414317
v -0.109847 0.091069 -0.417548
v -0.206507 -0.221462 -0.332706
v -0.213946 0.063163 -0.333134
v -0.106933 -0.279539 -0.197908
v -0.117375 0.122363 -0.199769
v 0.011078 0.132223 -0.193369
v -0.218797 -0.232820 -0.163255
v -0.226821 0.074215 -0.163717
v -0.236900 -0.181926 -0.193982
v -0.242243 0.022522 -0.194289
v 0.052820 0.097050 -0.224841
v -0.215748 -0.079096 -0.205334
v 0.058582 -0.059242 -0.258260
v 0.060028 -0.140948 -0.244301
v -0.237880 -0.130816 -0.201191
v -0.240552 -0.028592 -0.201345
v 0.055781 0.021827 -0.244696
v -0.215126 -0.104652 -0.204361
v 0.059482 -0.100946 -0.254387
v 0.057303 -0.017556 -0.254517
v -0.216462 -0.053540 -0.204437
v 0.057988 -0.140868 -0.244703
v 0.057445 -0.101826 -0.254329
v 0.055781 0.021827 -0.244696
v 0.057303 -0.017556 -0.254517
v 0.054037 0.021690 -0.245043
v 0.055519 -0.016893 -0.254480
v -0.106933 -0.279539 -0.197908
v -0.117375 0.122363 -0.199769
v -0.218797 -0.232820 -0.163255
v -0.226821 0.074215 -0.163717
v -0.111105 -0.264009 -0.205525
v -0.120731 0.106886 -0.207440
v -0.214529 -0.221446 -0.171728
v -0.221969 0.063217 -0.172156
v 0.022424 -0.268987 -0.191464
v 0.061020 -0.218340 -0.223493
vn 0.085252 -0.992652 -0.085876
vn -0.107956 0.225265 0.968298
vn -0.022367 0.996895 -0.075494
vn 0.716645 -0.131343 0.684959
vn -0.042547 -0.226607 0.973057
vn 0.055937 -0.374988 -0.925340
vn -0.977837 0.077749 0.194397
vn 0.000000 0.000000 1.000000
vn -0.794045 -0.015215 -0.607669
vn -0.998419 -0.026168 -0.049750
vn -0.948906 0.311802 -0.048557
vn -0.975111 -0.023865 -0.220431
vn -0.931161 -0.361538 -0.047222
vn 0.995190 -0.008392 -0.097601
vn 0.708809 -0.261479 -0.655147
vn 0.582072 0.813137 -0.000293
vn 0.771493 -0.632348 -0.070249
vn -0.077499 -0.167384 0.982841
vn 0.656349 0.097927 0.748075
vn -0.054254 0.216964 0.974671
vn 0.047129 0.092716 -0.994577
vn -0.979792 -0.039329 0.196116
vn -0.861787 -0.066697 -0.502867
vn -0.998419 -0.026169 -0.049750
vn -0.976528 -0.025843 -0.213833
vn 0.994670 0.039086 -0.095411
vn 0.724216 0.058134 -0.687119
vn -0.038800 0.419057 0.907131
vn 0.291498 -0.955054 0.053856
vn -0.784344 0.566045 0.253766
vn 0.022570 -0.997160 0.071844
vn 0.029060 -0.997876 -0.058299
vn 0.708782 0.170629 0.684481
vn -0.054402 0.226998 0.972375
vn -0.711470 -0.267787 -0.649692
vn -0.974647 -0.025808 -0.222256
vn -0.755640 -0.443691 -0.481816
vn -0.721135 -0.691869 -0.035798
vn -0.696703 -0.677997 -0.234361
vn 0.135420 -0.379884 0.915068
vn 0.035760 0.387191 -0.921306
vn -0.987550 -0.067358 0.142158
vn 0.993405 0.064181 -0.095009
vn 0.652491 0.277015 -0.705350
vn 0.702236 -0.676407 0.222122
vn 0.211685 -0.976804 0.032289
vn -0.783922 -0.187390 -0.591905
vn -0.756288 0.653145 -0.037820
vn -0.837476 0.452430 -0.306498
vn 0.052010 -0.094235 -0.994191
vn -0.977416 0.018602 0.210504
vn 0.995144 0.009432 -0.097974
vn 0.739902 -0.048493 -0.670965
vn -0.031346 -0.404040 0.914204
vn -0.643581 -0.695231 0.320088
vn 0.606702 -0.149521 0.780740
vn -0.042923 -0.216571 0.975323
vn -0.867753 -0.018129 -0.496665
vn -0.976717 -0.023925 -0.213192
vn 0.055070 -0.293154 -0.954478
vn 0.994643 -0.014723 -0.102314
vn 0.747902 -0.187815 -0.636685
vn 0.690099 0.195974 0.696676
vn -0.056029 0.417729 0.906843
vn 0.952326 -0.080187 -0.294356
vn 0.904069 0.181240 0.387055
vn -0.031033 0.994538 0.099656
vn -0.296491 0.945000 0.138088
vn -0.265455 0.958459 -0.104361
vn 0.025175 0.997201 0.070407
vn -0.022815 0.997402 -0.068332
vn -0.023201 0.997984 -0.059081
vn 0.348299 0.937063 0.024520
vn 0.179771 0.983338 -0.026987
vn 0.252714 0.965489 0.062978
vn -0.029540 0.997228 0.068285
vn 0.585570 -0.313715 0.747456
vn -0.034218 -0.417643 0.907967
vn 0.040225 0.282331 -0.958473
vn 0.993464 0.061644 -0.096065
vn 0.711003 0.224194 -0.666493
vn 0.911441 -0.133843 0.389053
vn 0.950215 0.121037 -0.287127
vn -0.185983 -0.982071 -0.030761
vn 0.318914 -0.933902 0.161617
vn 0.028922 -0.998043 -0.055448
vn 0.020964 -0.994504 0.102582
vn -0.280827 -0.953256 0.111535
vn 0.212515 0.911419 0.352352
vn 0.502963 -0.646031 0.574171
vn -0.401964 0.915430 -0.020341
vn -0.329116 -0.941823 -0.068201
vn -0.388765 -0.811330 -0.436583
vn -0.396223 0.771754 -0.497396
vn 0.919208 0.391114 0.045680
vn 0.946110 -0.320520 0.046301
vn -0.967466 0.243619 -0.068265
vn -0.956441 -0.285276 -0.061953
vn 0.091652 -0.995780 0.004678
vn -0.998419 -0.026170 -0.049750
vn -0.946919 0.317981 -0.047253
vn -0.931773 -0.359954 -0.047248
vn 0.971341 0.079769 0.223906
vn 0.639578 0.768652 -0.010737
vn 0.559806 -0.813149 0.159390
vn -0.998419 -0.026170 -0.049751
vn 0.972805 0.015554 0.231102
vn 0.972792 -0.026960 0.230104
vn 0.396786 -0.917700 0.019705
vn -0.756287 0.653146 -0.037821
vn 0.972458 0.037339 0.230069
vn 0.972064 0.064892 0.225566
vn -0.085860 0.992490 -0.087133
vn 0.331341 0.943507 0.002768
vn 0.973859 0.001161 0.227149
vn 0.074856 -0.997058 0.016493
vn -0.155412 0.987817 -0.008079
vn -0.399134 -0.914212 -0.070056
vn 0.926235 0.374270 0.044829
vn 0.938789 -0.341423 0.045886
vn -0.968635 0.238956 -0.068166
vn -0.955836 -0.287248 -0.062183
vn 0.094512 -0.993939 -0.056145
vn -0.072439 0.994326 -0.077896
vn -0.947918 0.314982 -0.047302
vn 0.998419 0.026169 0.049750
vn 0.750367 -0.660901 -0.012631
vn -0.998419 -0.026168 -0.049751
vn -0.756287 0.653146 -0.037820
vn -0.998419 -0.026169 -0.049751
vn 0.016910 0.999806 0.010098
vn 0.347593 0.937495 0.016784
vn -0.269297 0.962959 -0.013746
vn 0.941853 -0.332728 0.046968
vn -0.968105 0.241108 -0.068111
vn -0.933022 -0.356812 -0.046425
vn 0.611102 0.789739 -0.053549
vn 0.634751 -0.764731 -0.110806
vn 0.368338 -0.926100 -0.081647
vn -0.462488 -0.883743 -0.071429
vn 0.932829 0.357323 0.046370
vn -0.955202 -0.289331 -0.062268
vn 0.028825 -0.998155 -0.053436
vn 0.115320 0.389187 0.913912
vn -0.074181 0.996193 -0.045798
vn 0.716673 -0.131315 0.684935
vn 0.055938 -0.374988 -0.925340
vn -0.989731 0.016109 0.142032
vn -0.720285 0.238645 -0.651335
vn -0.950382 0.307448 -0.047424
vn -0.974647 -0.025807 -0.222256
vn -0.930101 -0.364376 -0.046278
vn 0.994861 -0.014205 -0.100244
vn 0.670579 -0.240731 -0.701693
vn 0.525845 0.850557 0.006247
vn 0.579960 -0.802296 -0.141310
vn -0.042923 -0.216572 0.975323
vn 0.598002 0.183354 0.780240
vn -0.975127 -0.069000 0.210635
vn -0.867479 -0.028640 -0.496650
vn -0.976618 -0.027739 -0.213187
vn 0.994508 0.042036 -0.095849
vn 0.735842 0.084306 -0.671884
vn -0.052480 0.404596 0.912988
vn 0.302861 -0.950751 0.065934
vn -0.679042 0.661625 0.318048
vn 0.022570 -0.997179 0.071582
vn 0.029077 -0.997866 -0.058470
vn 0.708752 0.170656 0.684505
vn -0.054403 0.226998 0.972375
vn -0.790484 -0.028120 -0.611837
vn -0.975013 -0.027777 -0.220405
vn -0.793598 0.138140 -0.592553
vn -0.812683 -0.496452 -0.305093
vn -0.096118 -0.227685 0.968979
vn 0.035758 0.387191 -0.921306
vn -0.972456 -0.128136 0.194707
vn 0.993889 0.059060 -0.093252
vn 0.691999 0.306129 -0.653775
vn 0.578306 -0.791001 0.199700
vn 0.275040 -0.961238 -0.019332
vn -0.776872 0.401534 -0.485016
vn -0.756288 0.653145 -0.037821
vn -0.731151 0.639973 -0.236331
vn -0.086214 0.166061 0.982340
vn -0.980524 -0.011314 0.196074
vn 0.995193 0.012458 -0.097141
vn 0.725599 -0.021440 -0.687784
vn -0.016928 -0.417784 0.908389
vn -0.753724 -0.605480 0.255528
vn 0.660510 -0.061260 0.748314
vn -0.864123 0.019547 -0.502901
vn -0.976526 -0.025845 -0.213843
vn 0.055028 -0.293029 -0.954519
vn 0.994787 -0.011139 -0.101368
vn 0.718770 -0.131695 -0.682661
vn 0.565965 0.346568 0.748046
vn -0.055962 0.417583 0.906914
vn 0.955504 -0.075389 -0.285181
vn 0.902471 0.183053 0.389920
vn -0.031031 0.994517 0.099866
vn -0.330399 0.937527 0.108996
vn -0.220401 0.964643 -0.144523
vn -0.146072 0.985612 0.085042
vn -0.022664 0.997307 -0.069748
vn -0.023228 0.998000 -0.058799
vn 0.328573 0.944100 0.026754
vn 0.212092 0.975780 -0.053578
vn 0.241257 0.969131 0.050795
vn -0.029541 0.997213 0.068507
vn 0.700486 -0.158105 0.695933
vn -0.034175 -0.417533 0.908019
vn 0.040206 0.282248 -0.958499
vn 0.993204 0.065015 -0.096536
vn 0.736108 0.164114 -0.656667
vn 0.912655 -0.132355 0.386707
vn 0.946903 0.125316 -0.296091
vn -0.131188 -0.988215 -0.078872
vn 0.182631 -0.974254 0.132190
vn 0.028775 -0.998132 -0.053899
vn 0.020964 -0.994522 0.102401
vn -0.246912 -0.958756 0.140787
vn 0.537865 0.639439 0.549380
vn 0.184561 -0.904724 0.383942
vn -0.505563 0.858001 -0.090778
vn -0.212192 -0.977172 -0.010475
vn -0.355331 -0.792889 -0.495042
vn -0.430580 0.788599 -0.438989
vn 0.913984 0.403346 0.044108
vn 0.950224 -0.307943 0.047383
vn -0.966720 0.246461 -0.068632
vn -0.956924 -0.283634 -0.062035
vn -0.082159 0.988097 -0.130055
vn -0.948180 0.314007 -0.048529
vn -0.930935 -0.362236 -0.046320
vn 0.971008 0.081848 0.224597
vn 0.584036 0.811079 -0.032440
vn 0.741047 -0.662506 0.109250
vn 0.972612 0.012702 0.232088
vn 0.972327 -0.030357 0.231642
vn 0.396449 -0.917846 0.019685
vn 0.972521 0.038683 0.229580
vn 0.972980 0.055495 0.224122
vn -0.222475 0.967661 -0.118903
vn 0.316317 0.948653 -0.001355
vn 0.972620 -0.014764 0.231931
vn 0.048621 -0.998698 0.015446
vn -0.323664 0.942100 -0.087686
vn -0.291801 -0.956370 -0.014444
vn 0.919207 0.391115 0.045680
vn 0.941854 -0.332724 0.046968
vn -0.956441 -0.285276 -0.061952
vn 0.083704 -0.995204 -0.050618
vn -0.085599 0.993781 -0.071223
vn 0.799537 -0.600455 0.013976
vn -0.998419 -0.026171 -0.049751
vn -0.756287 0.653145 -0.037821
vn 0.036998 0.999256 0.010867
vn 0.348213 0.937264 0.016822
vn -0.420687 0.902755 -0.089751
vn -0.967429 0.243708 -0.068461
vn -0.931773 -0.359955 -0.047248
vn 0.620836 0.782290 -0.050838
vn 0.392045 -0.914588 -0.099139
vn 0.089832 -0.994153 -0.059909
vn -0.385849 -0.922364 -0.019134
vn 0.926234 0.374273 0.044830
vn -0.955866 -0.287182 -0.062029
usemtl None
s off
f 189//1 1//1 157//1
f 31//2 33//2 2//2
f 158//3 3//3 4//3
f 42//4 45//4 4//4
f 42//5 4//5 46//5
f 32//6 5//6 36//6
f 33//7 34//7 9//7
f 12//8 114//8 7//8
f 41//9 43//9 12//9
f 6//8 109//8 11//8
f 169//10 49//10 14//10
f 161//11 163//11 10//11
f 43//12 44//12 12//12
f 127//13 129//13 11//13
f 167//14 40//14 17//14
f 32//15 35//15 5//15
f 126//16 132//16 8//16
f 189//17 190//17 1//17
f 66//18 68//18 26//18
f 57//19 60//19 30//19
f 57//20 24//20 51//20
f 67//21 23//21 61//21
f 68//22 69//22 28//22
f 56//23 58//23 21//23
f 171//24 54//24 165//24
f 58//25 59//25 27//25
f 173//26 65//26 166//26
f 67//27 70//27 29//27
f 51//28 53//28 31//28
f 57//29 81//29 82//29
f 53//30 54//30 33//30
f 51//31 77//31 81//31
f 52//32 78//32 56//32
f 1//33 17//33 40//33
f 1//34 37//34 2//34
f 6//35 11//35 36//35
f 162//24 13//24 168//24
f 11//36 15//36 39//36
f 61//8 89//8 67//8
f 173//8 178//8 65//8
f 61//37 63//37 43//37
f 174//38 69//38 49//38
f 63//39 64//39 44//39
f 3//40 10//40 48//40
f 8//41 47//41 7//41
f 10//42 14//42 49//42
f 164//43 18//43 170//43
f 8//44 20//44 50//44
f 140//45 144//45 55//45
f 55//46 79//46 52//46
f 36//47 38//47 56//47
f 168//48 34//48 171//48
f 38//49 39//49 58//49
f 22//20 26//20 51//20
f 23//50 52//50 21//50
f 26//51 28//51 53//51
f 166//52 30//52 60//52
f 23//53 29//53 52//53
f 46//54 48//54 68//54
f 67//8 93//8 70//8
f 48//55 49//55 69//55
f 65//8 91//8 62//8
f 62//8 90//8 66//8
f 24//56 30//56 62//56
f 24//57 62//57 22//57
f 21//58 25//58 63//58
f 165//10 28//10 69//10
f 25//59 27//59 63//59
f 78//60 72//60 74//60
f 176//61 82//61 76//61
f 78//62 79//62 72//62
f 75//63 76//63 82//63
f 75//64 81//64 71//64
f 56//65 80//65 74//65
f 31//66 71//66 77//66
f 37//67 75//67 31//67
f 40//68 76//68 37//68
f 32//69 72//69 73//69
f 167//70 175//70 76//70
f 36//71 74//71 72//71
f 89//72 101//72 105//72
f 178//73 180//73 103//73
f 93//74 105//74 106//74
f 91//75 103//75 90//75
f 90//76 102//76 92//76
f 66//8 92//8 46//8
f 41//8 83//8 61//8
f 50//8 88//8 47//8
f 138//8 145//8 50//8
f 47//8 87//8 41//8
f 46//8 86//8 42//8
f 42//8 84//8 45//8
f 102//77 103//77 96//77
f 102//78 96//78 98//78
f 99//79 105//79 95//79
f 179//80 97//80 180//80
f 99//81 100//81 105//81
f 92//82 104//82 86//82
f 83//83 95//83 89//83
f 88//84 100//84 87//84
f 145//85 147//85 88//85
f 87//86 99//86 83//86
f 86//87 98//87 96//87
f 84//88 96//88 97//88
f 114//89 122//89 110//89
f 109//90 117//90 121//90
f 9//8 111//8 2//8
f 3//8 108//8 10//8
f 128//8 152//8 12//8
f 160//8 183//8 9//8
f 158//8 182//8 3//8
f 124//8 149//8 6//8
f 186//91 188//91 120//91
f 153//92 155//92 117//92
f 111//93 119//93 107//93
f 108//94 116//94 120//94
f 152//95 156//95 122//95
f 183//96 187//96 111//96
f 182//97 186//97 108//97
f 149//98 153//98 109//98
f 5//99 123//99 124//99
f 7//3 125//3 8//3
f 44//100 137//100 130//100
f 12//101 16//101 130//101
f 160//102 162//102 127//102
f 35//103 135//103 131//103
f 159//104 164//104 132//104
f 5//105 19//105 131//105
f 59//106 139//106 27//106
f 70//107 141//107 29//107
f 15//24 129//24 39//24
f 70//8 94//8 141//8
f 64//38 142//38 137//38
f 20//108 132//108 50//108
f 172//109 176//109 140//109
f 39//110 136//110 59//110
f 29//111 134//111 55//111
f 27//24 133//24 142//24
f 79//112 144//112 143//112
f 35//113 73//113 143//113
f 94//114 106//114 148//114
f 170//8 177//8 138//8
f 100//115 147//115 106//115
f 177//116 179//116 147//116
f 161//8 184//8 128//8
f 11//8 113//8 127//8
f 7//8 110//8 125//8
f 157//8 181//8 124//8
f 118//117 122//117 156//117
f 185//118 187//118 153//118
f 184//119 188//119 152//119
f 113//120 121//120 151//120
f 110//121 118//121 154//121
f 181//122 185//122 153//122
f 123//123 189//123 124//123
f 125//124 158//124 159//124
f 137//10 169//10 163//10
f 128//125 130//125 163//125
f 135//126 167//126 190//126
f 123//127 131//127 189//127
f 139//128 171//128 133//128
f 141//126 173//126 134//126
f 129//100 162//100 136//100
f 141//8 146//8 173//8
f 142//38 174//38 169//38
f 132//126 164//126 138//126
f 136//129 168//129 139//129
f 134//126 166//126 172//126
f 133//130 165//130 174//130
f 144//126 176//126 175//126
f 135//131 143//131 167//131
f 146//132 148//132 180//132
f 147//126 179//126 148//126
f 127//8 151//8 160//8
f 125//8 150//8 158//8
f 154//133 156//133 188//133
f 151//134 155//134 187//134
f 150//135 154//135 182//135
f 9//136 13//136 162//136
f 4//137 18//137 164//137
f 60//138 82//138 172//138
f 45//8 85//8 170//8
f 85//139 97//139 177//139
f 10//8 112//8 161//8
f 2//8 107//8 157//8
f 115//140 119//140 185//140
f 112//141 120//141 188//141
f 107//142 115//142 185//142
f 1//143 2//143 157//143
f 33//144 9//144 2//144
f 159//145 158//145 4//145
f 45//146 18//146 4//146
f 4//5 3//5 46//5
f 5//147 6//147 36//147
f 34//148 13//148 9//148
f 114//8 110//8 7//8
f 7//149 41//149 12//149
f 109//8 113//8 11//8
f 163//100 169//100 14//100
f 163//150 14//150 10//150
f 44//151 16//151 12//151
f 129//152 15//152 11//152
f 190//153 167//153 17//153
f 35//154 19//154 5//154
f 132//155 20//155 8//155
f 190//156 17//156 1//156
f 22//157 66//157 26//157
f 24//158 57//158 30//158
f 24//20 22//20 51//20
f 23//21 21//21 61//21
f 26//159 68//159 28//159
f 58//160 25//160 21//160
f 54//130 28//130 165//130
f 25//161 58//161 27//161
f 65//162 30//162 166//162
f 23//163 67//163 29//163
f 53//164 33//164 31//164
f 60//165 57//165 82//165
f 54//166 34//166 33//166
f 57//167 51//167 81//167
f 78//168 80//168 56//168
f 37//169 1//169 40//169
f 37//170 31//170 2//170
f 11//171 38//171 36//171
f 13//100 34//100 168//100
f 38//172 11//172 39//172
f 89//8 93//8 67//8
f 178//8 91//8 65//8
f 41//173 61//173 43//173
f 169//38 174//38 49//38
f 43//174 63//174 44//174
f 46//175 3//175 48//175
f 47//176 41//176 7//176
f 48//177 10//177 49//177
f 18//178 45//178 170//178
f 47//179 8//179 50//179
f 144//180 79//180 55//180
f 79//181 78//181 52//181
f 38//182 58//182 56//182
f 34//183 54//183 171//183
f 39//184 59//184 58//184
f 26//185 53//185 51//185
f 52//50 56//50 21//50
f 28//186 54//186 53//186
f 172//187 166//187 60//187
f 29//188 55//188 52//188
f 66//189 46//189 68//189
f 93//8 94//8 70//8
f 68//190 48//190 69//190
f 91//8 90//8 62//8
f 90//8 92//8 66//8
f 30//191 65//191 62//191
f 62//57 66//57 22//57
f 61//192 21//192 63//192
f 174//128 165//128 69//128
f 27//193 64//193 63//193
f 80//194 78//194 74//194
f 175//195 176//195 76//195
f 79//196 73//196 72//196
f 81//197 75//197 82//197
f 81//198 77//198 71//198
f 36//199 56//199 74//199
f 51//200 31//200 77//200
f 75//201 71//201 31//201
f 76//202 75//202 37//202
f 35//203 32//203 73//203
f 40//204 167//204 76//204
f 32//205 36//205 72//205
f 93//206 89//206 105//206
f 91//207 178//207 103//207
f 94//208 93//208 106//208
f 103//209 102//209 90//209
f 102//210 104//210 92//210
f 92//8 86//8 46//8
f 83//8 89//8 61//8
f 88//8 87//8 47//8
f 145//8 88//8 50//8
f 87//8 83//8 41//8
f 86//8 84//8 42//8
f 84//8 85//8 45//8
f 103//211 97//211 96//211
f 104//212 102//212 98//212
f 105//213 101//213 95//213
f 97//214 103//214 180//214
f 100//215 106//215 105//215
f 104//216 98//216 86//216
f 95//217 101//217 89//217
f 100//218 99//218 87//218
f 147//219 100//219 88//219
f 99//220 95//220 83//220
f 84//221 86//221 96//221
f 85//222 84//222 97//222
f 122//223 118//223 110//223
f 113//224 109//224 121//224
f 111//8 107//8 2//8
f 108//8 112//8 10//8
f 152//8 114//8 12//8
f 183//8 111//8 9//8
f 182//8 108//8 3//8
f 149//8 109//8 6//8
f 116//225 186//225 120//225
f 155//226 121//226 117//226
f 119//227 115//227 107//227
f 112//228 108//228 120//228
f 114//229 152//229 122//229
f 187//230 119//230 111//230
f 186//231 116//231 108//231
f 153//232 117//232 109//232
f 6//143 5//143 124//143
f 125//233 126//233 8//233
f 16//10 44//10 130//10
f 128//234 12//234 130//234
f 162//235 129//235 127//235
f 19//236 35//236 131//236
f 126//237 159//237 132//237
f 123//238 5//238 131//238
f 139//100 133//100 27//100
f 141//239 134//239 29//239
f 129//130 136//130 39//130
f 94//8 146//8 141//8
f 44//38 64//38 137//38
f 132//240 138//240 50//240
f 176//241 144//241 140//241
f 136//110 139//110 59//110
f 134//242 140//242 55//242
f 64//100 27//100 142//100
f 73//243 79//243 143//243
f 135//244 35//244 143//244
f 146//245 94//245 148//245
f 177//8 145//8 138//8
f 147//246 148//246 106//246
f 145//247 177//247 147//247
f 184//8 152//8 128//8
f 113//8 151//8 127//8
f 110//8 150//8 125//8
f 181//8 149//8 124//8
f 154//248 118//248 156//248
f 187//249 155//249 153//249
f 188//250 156//250 152//250
f 121//251 155//251 151//251
f 150//135 110//135 154//135
f 149//252 181//252 153//252
f 189//253 157//253 124//253
f 126//254 125//254 159//254
f 130//24 137//24 163//24
f 161//11 128//11 163//11
f 131//126 135//126 190//126
f 131//255 190//255 189//255
f 171//256 165//256 133//256
f 173//126 166//126 134//126
f 162//100 168//100 136//100
f 146//8 178//8 173//8
f 137//38 142//38 169//38
f 164//126 170//126 138//126
f 168//257 171//257 139//257
f 140//126 134//126 172//126
f 142//128 133//128 174//128
f 143//126 144//126 175//126
f 143//258 175//258 167//258
f 178//259 146//259 180//259
f 179//126 180//126 148//126
f 151//8 183//8 160//8
f 150//8 182//8 158//8
f 186//260 154//260 188//260
f 183//96 151//96 187//96
f 154//261 186//261 182//261
f 160//262 9//262 162//262
f 159//263 4//263 164//263
f 82//264 176//264 172//264
f 85//8 177//8 170//8
f 97//265 179//265 177//265
f 112//8 184//8 161//8
f 107//8 181//8 157//8
f 119//266 187//266 185//266
f 184//267 112//267 188//267
f 181//268 107//268 185//268
