ply
format ascii 1.0
comment Created by Blender 2.69 (sub 0) - www.blender.org, source file: 'asoldier2.blend'
element vertex 30
property float x
property float y
property float z
property float nx
property float ny
property float nz
property uchar red
property uchar green
property uchar blue
element face 12
property list uchar uint vertex_indices
end_header
-0.367604 0.372899 0.578769 -0.303556 0.382837 -0.872519 36 41 89
-0.196630 0.342116 0.505780 -0.303556 0.382837 -0.872519 36 41 89
-0.430156 0.177332 0.514722 -0.303556 0.382837 -0.872519 36 41 89
-0.223479 0.191132 0.993031 0.303555 -0.382836 0.872520 36 41 89
-0.286031 -0.004434 0.928984 0.303555 -0.382836 0.872520 36 41 89
-0.052505 0.160350 0.920042 0.303555 -0.382836 0.872520 36 41 89
-0.367604 0.372899 0.578769 0.290826 0.909258 0.297776 36 41 89
-0.223479 0.191132 0.993031 0.290826 0.909258 0.297776 36 41 89
-0.052505 0.160350 0.920042 0.290826 0.909258 0.297776 36 41 89
-0.196630 0.342116 0.505780 0.907344 -0.163360 -0.387349 36 41 89
-0.052505 0.160350 0.920042 0.907344 -0.163360 -0.387349 36 41 89
-0.115057 -0.035217 0.855995 0.907344 -0.163360 -0.387349 36 41 89
-0.259182 0.146550 0.441733 -0.290826 -0.909258 -0.297776 36 41 89
-0.115057 -0.035217 0.855995 -0.290826 -0.909258 -0.297776 36 41 89
-0.430156 0.177332 0.514722 -0.290826 -0.909258 -0.297776 36 41 89
-0.223479 0.191132 0.993031 -0.907345 0.163360 0.387349 36 41 89
-0.367604 0.372899 0.578769 -0.907345 0.163360 0.387349 36 41 89
-0.286031 -0.004434 0.928984 -0.907345 0.163360 0.387349 36 41 89
-0.196630 0.342116 0.505780 -0.303555 0.382836 -0.872520 36 41 89
-0.259182 0.146550 0.441733 -0.303555 0.382836 -0.872520 36 41 89
-0.430156 0.177332 0.514722 -0.303555 0.382836 -0.872520 36 41 89
-0.286031 -0.004434 0.928984 0.303556 -0.382837 0.872520 36 41 89
-0.115057 -0.035217 0.855995 0.303556 -0.382837 0.872520 36 41 89
-0.052505 0.160350 0.920042 0.303556 -0.382837 0.872520 36 41 89
-0.196630 0.342116 0.505780 0.290826 0.909258 0.297776 36 41 89
-0.259182 0.146550 0.441733 0.907345 -0.163360 -0.387349 36 41 89
-0.196630 0.342116 0.505780 0.907345 -0.163360 -0.387349 36 41 89
-0.115057 -0.035217 0.855995 0.907345 -0.163360 -0.387349 36 41 89
-0.286031 -0.004434 0.928984 -0.290826 -0.909258 -0.297776 36 41 89
-0.430156 0.177332 0.514722 -0.907345 0.163360 0.387349 36 41 89
3 0 1 2
3 3 4 5
3 6 7 8
3 9 10 11
3 12 13 14
3 15 16 17
3 18 19 20
3 21 22 23
3 24 6 8
3 25 26 27
3 13 28 14
3 16 29 17
