# Blender v2.69 (sub 0) OBJ File: 'test.blend'
# www.blender.org
o Cube.014_Cube.015
v 0.547533 0.543532 -0.044578
v 0.547533 0.543532 -0.124502
v 1.125184 0.543532 -0.124502
v 1.125184 0.543532 -0.044578
v 0.547533 0.740463 -0.044578
v 0.547533 0.740463 -0.124502
v 1.125184 0.740463 -0.124502
v 1.125184 0.740463 -0.044578
vn -1.000000 0.000000 0.000000
vn 0.000000 0.000000 -1.000000
vn 1.000000 0.000000 0.000000
vn 0.000000 0.000000 1.000000
vn 0.000000 -1.000000 0.000000
vn 0.000000 1.000000 0.000000
s off
f 5//1 6//1 1//1
f 6//2 7//2 2//2
f 7//3 8//3 3//3
f 8//4 5//4 4//4
f 1//5 2//5 4//5
f 8//6 7//6 5//6
f 6//1 2//1 1//1
f 7//2 3//2 2//2
f 8//3 4//3 3//3
f 5//4 1//4 4//4
f 2//5 3//5 4//5
f 7//6 6//6 5//6
o Cube.013_Cube.014
v 0.371380 0.848359 -0.036630
v 0.371380 0.848359 -0.116555
v 0.949031 0.848359 -0.116555
v 0.949031 0.848359 -0.036630
v 0.371380 1.045290 -0.036630
v 0.371380 1.045290 -0.116555
v 0.949031 1.045290 -0.116555
v 0.949031 1.045290 -0.036630
vn -1.000000 0.000000 0.000000
vn 0.000000 0.000000 -1.000000
vn 1.000000 0.000000 0.000000
vn 0.000000 0.000000 1.000000
vn 0.000000 -1.000000 0.000000
vn 0.000000 1.000000 0.000000
s off
f 13//7 14//7 9//7
f 14//8 15//8 10//8
f 15//9 16//9 11//9
f 16//10 13//10 12//10
f 9//11 10//11 12//11
f 16//12 15//12 13//12
f 14//7 10//7 9//7
f 15//8 11//8 10//8
f 16//9 12//9 11//9
f 13//10 9//10 12//10
f 10//11 11//11 12//11
f 15//12 14//12 13//12
o Cube.012_Cube.013
v 0.993022 0.836668 -0.052969
v 0.993022 0.836668 -0.100079
v 1.333507 0.836668 -0.100079
v 1.333507 0.836668 -0.052969
v 0.993022 0.952746 -0.052969
v 0.993022 0.952746 -0.100079
v 1.333507 0.952746 -0.100079
v 1.333507 0.952746 -0.052969
vn -1.000000 0.000000 0.000000
vn 0.000000 0.000000 -1.000000
vn 1.000000 0.000000 0.000000
vn 0.000000 0.000000 1.000000
vn 0.000000 -1.000000 0.000000
vn 0.000000 1.000000 0.000000
s off
f 21//13 22//13 17//13
f 22//14 23//14 18//14
f 23//15 24//15 19//15
f 24//16 21//16 20//16
f 17//17 18//17 20//17
f 24//18 23//18 21//18
f 22//13 18//13 17//13
f 23//14 19//14 18//14
f 24//15 20//15 19//15
f 21//16 17//16 20//16
f 18//17 19//17 20//17
f 23//18 22//18 21//18
o Cube.011_Cube.012
v 0.288599 0.683002 -0.017414
v 0.288599 0.683002 -0.141127
v 1.182724 0.683002 -0.141127
v 1.182724 0.683002 -0.017414
v 0.288599 0.987825 -0.017414
v 0.288599 0.987825 -0.141127
v 1.182724 0.987825 -0.141127
v 1.182724 0.987825 -0.017414
vn -1.000000 0.000000 0.000000
vn 0.000000 0.000000 -1.000000
vn 1.000000 0.000000 0.000000
vn 0.000000 0.000000 1.000000
vn 0.000000 -1.000000 0.000000
vn 0.000000 1.000000 0.000000
s off
f 29//19 30//19 25//19
f 30//20 31//20 26//20
f 31//21 32//21 27//21
f 32//22 29//22 28//22
f 25//23 26//23 28//23
f 32//24 31//24 29//24
f 30//19 26//19 25//19
f 31//20 27//20 26//20
f 32//21 28//21 27//21
f 29//22 25//22 28//22
f 26//23 27//23 28//23
f 31//24 30//24 29//24
o Cube.010_Cube.011
v -0.296303 0.889219 -0.085751
v -0.105818 0.905682 -0.374247
v 0.084964 0.896513 -0.402404
v -0.228535 0.869417 0.072403
v -0.287762 1.025676 -0.072325
v -0.097278 1.042139 -0.360821
v 0.031144 1.156419 -0.269507
v -0.159340 1.139955 0.018989
vn -0.832601 0.105604 -0.543712
vn 0.550372 0.047569 -0.833563
vn 0.832601 -0.105604 0.543712
vn -0.550373 -0.047569 0.833563
vn -0.062164 -0.993270 -0.097728
vn -0.511690 0.808124 -0.291736
vn -0.832602 0.105604 -0.543712
vn -0.111075 0.434118 -0.893982
vn 0.832602 -0.105604 0.543712
vn -0.862339 0.300949 0.407187
vn -0.062163 -0.993270 -0.097727
vn -0.511690 0.808124 -0.291733
s off
f 37//25 38//25 33//25
f 38//26 39//26 34//26
f 39//27 40//27 35//27
f 40//28 37//28 33//28
f 33//29 34//29 35//29
f 40//30 39//30 37//30
f 38//31 34//31 33//31
f 39//32 35//32 34//32
f 40//33 36//33 35//33
f 36//34 40//34 33//34
f 36//35 33//35 35//35
f 39//36 38//36 37//36
o Cube.009_Cube.010
v -0.028233 0.885622 -0.045452
v -0.021168 0.909369 -0.247311
v 0.178902 0.872964 -0.244592
v 0.171837 0.849217 -0.042733
v 0.007583 1.084296 -0.020826
v 0.014648 1.108044 -0.222685
v 0.214719 1.071639 -0.219965
v 0.207654 1.047891 -0.018106
vn -0.983757 0.179005 -0.013372
vn 0.034738 0.116768 -0.992552
vn 0.983757 -0.179005 0.013372
vn -0.034738 -0.116768 0.992552
vn -0.176111 -0.976894 -0.121089
vn 0.176110 0.976895 0.121089
vn -0.176110 -0.976894 -0.121090
vn 0.176110 0.976894 0.121090
s off
f 45//37 46//37 41//37
f 46//38 47//38 42//38
f 47//39 48//39 43//39
f 48//40 45//40 44//40
f 41//41 42//41 44//41
f 48//42 47//42 45//42
f 46//37 42//37 41//37
f 47//38 43//38 42//38
f 48//39 44//39 43//39
f 45//40 41//40 44//40
f 42//43 43//43 44//43
f 47//44 46//44 45//44
o Cube.008_Cube.009
v 0.046318 0.592517 0.137716
v 0.060278 0.618968 0.282160
v 0.019146 0.544205 0.334754
v -0.000497 0.506985 0.131500
v -0.110402 0.928773 0.091286
v -0.096087 0.955896 0.239399
v -0.184488 0.981118 0.274426
v -0.204131 0.943898 0.071172
v -0.133766 0.476684 0.361897
v -0.153410 0.439464 0.158643
v -0.337400 0.913598 0.301569
v -0.357043 0.876377 0.098314
v -0.217542 0.491438 0.296317
v -0.226641 0.474197 0.202167
v -0.374262 0.827694 0.249887
v -0.383361 0.810453 0.155737
vn 0.877095 -0.480306 0.003188
vn 0.196893 0.960841 -0.194979
vn 0.902960 0.398714 -0.160279
vn 0.467939 0.321637 0.823154
vn -0.419173 0.899373 -0.124185
vn 0.203443 -0.040257 -0.978259
vn -0.922839 0.384730 0.018734
vn -0.094637 -0.179318 -0.979229
vn 0.094637 0.179318 0.979229
vn 0.419174 -0.899373 0.124184
vn -0.902960 -0.398714 0.160279
vn -0.598752 -0.376662 -0.706840
vn -0.625737 -0.187076 0.757268
vn -0.320013 -0.925956 0.200490
vn 0.877095 -0.480305 0.003188
vn 0.196893 0.960841 -0.194980
vn 0.426014 0.315627 0.847875
vn -0.419174 0.899373 -0.124184
vn -0.922839 0.384730 0.018735
vn -0.598752 -0.376662 -0.706839
s off
f 49//45 50//45 51//45
f 53//46 56//46 55//46
f 49//47 53//47 54//47
f 50//48 54//48 51//48
f 55//49 56//49 59//49
f 53//50 49//50 52//50
f 59//51 60//51 64//51
f 56//52 52//52 60//52
f 51//53 55//53 57//53
f 52//54 51//54 58//54
f 61//55 63//55 62//55
f 60//56 58//56 64//56
f 57//57 59//57 63//57
f 58//58 57//58 62//58
f 52//59 49//59 51//59
f 54//60 53//60 55//60
f 50//47 49//47 54//47
f 54//61 55//61 51//61
f 56//62 60//62 59//62
f 56//50 53//50 52//50
f 63//63 59//63 64//63
f 52//52 58//52 60//52
f 55//53 59//53 57//53
f 51//54 57//54 58//54
f 63//55 64//55 62//55
f 58//64 62//64 64//64
f 61//57 57//57 63//57
f 57//58 61//58 62//58
o Cube.007_Cube.008
v 0.251969 0.875410 0.002357
v 0.309723 0.888433 0.128278
v 0.395372 0.848376 0.128790
v 0.314104 0.830052 -0.048400
v -0.035284 0.732578 0.148877
v 0.023937 0.745930 0.277996
v 0.022130 0.662787 0.319170
v -0.059138 0.644462 0.141980
v 0.460130 0.703086 0.114114
v 0.378862 0.684762 -0.063076
v 0.086888 0.517497 0.304494
v 0.005620 0.499172 0.127304
v 0.412144 0.624518 0.071803
v 0.374500 0.616030 -0.010273
v 0.124891 0.481686 0.218323
v 0.087247 0.473198 0.136246
vn 0.408391 0.869684 -0.277249
vn -0.896386 0.212204 0.389182
vn -0.405385 0.909518 0.091870
vn 0.214504 0.469603 0.856424
vn -0.814485 -0.404992 0.415446
vn -0.524135 0.206563 -0.826205
vn -0.318162 -0.916957 0.240754
vn -0.415063 -0.093589 -0.904966
vn 0.415062 0.093588 0.904967
vn 0.814485 0.404992 -0.415446
vn 0.405385 -0.909518 -0.091871
vn -0.104717 -0.601683 -0.791841
vn 0.577772 -0.631407 0.517208
vn 0.869142 -0.334801 -0.364007
vn 0.408391 0.869684 -0.277248
vn 0.232971 0.427500 0.873481
vn -0.524135 0.206562 -0.826205
vn 0.415062 0.093589 0.904967
vn 0.405385 -0.909518 -0.091870
vn 0.577772 -0.631407 0.517209
vn 0.869141 -0.334802 -0.364008
s off
f 65//65 66//65 67//65
f 69//66 72//66 71//66
f 65//67 69//67 70//67
f 66//68 70//68 67//68
f 71//69 72//69 75//69
f 69//70 65//70 68//70
f 75//71 76//71 80//71
f 72//72 68//72 76//72
f 67//73 71//73 73//73
f 68//74 67//74 74//74
f 77//75 79//75 78//75
f 76//76 74//76 80//76
f 73//77 75//77 79//77
f 74//78 73//78 78//78
f 68//79 65//79 67//79
f 70//66 69//66 71//66
f 66//67 65//67 70//67
f 70//80 71//80 67//80
f 72//69 76//69 75//69
f 72//81 69//81 68//81
f 79//71 75//71 80//71
f 68//72 74//72 76//72
f 71//82 75//82 73//82
f 67//74 73//74 74//74
f 79//83 80//83 78//83
f 74//76 78//76 80//76
f 77//84 73//84 79//84
f 73//85 77//85 78//85
o Cube.006_Cube.007
v 0.894027 0.973130 -0.280635
v 0.847334 0.967152 -0.149695
v 0.888310 0.895172 -0.104084
v 0.954013 0.903585 -0.288336
v 0.561889 0.970195 -0.399208
v 0.514010 0.964064 -0.264943
v 0.456748 0.891358 -0.258152
v 0.522451 0.899770 -0.442404
v 0.891868 0.735581 -0.110102
v 0.957572 0.743993 -0.294354
v 0.460306 0.731766 -0.264170
v 0.526010 0.740179 -0.448422
v 0.864895 0.682114 -0.191829
v 0.895330 0.686011 -0.277177
v 0.532757 0.679178 -0.310403
v 0.563192 0.683075 -0.395751
vn 0.740059 0.606051 0.291574
vn -0.772089 0.584864 -0.248621
vn -0.022278 0.999042 0.037670
vn -0.305465 0.379497 0.873311
vn -0.941752 -0.008323 -0.336206
vn 0.310189 0.364775 -0.877908
vn -0.672754 -0.688319 -0.271329
vn 0.335570 0.042966 -0.941035
vn -0.335570 -0.042966 0.941035
vn 0.941752 0.008324 0.336206
vn 0.022278 -0.999042 -0.037670
vn 0.286814 -0.541909 -0.789983
vn -0.200756 -0.788127 0.581854
vn 0.696770 -0.683602 0.217254
vn 0.740059 0.606050 0.291574
vn -0.772089 0.584864 -0.248620
vn -0.022278 0.999042 0.037671
vn -0.319479 0.334426 0.886619
vn -0.941752 -0.008324 -0.336206
vn 0.310189 0.364776 -0.877907
vn -0.672754 -0.688319 -0.271330
vn 0.941752 0.008323 0.336206
vn 0.022278 -0.999042 -0.037671
vn 0.286814 -0.541908 -0.789983
vn -0.200756 -0.788127 0.581852
vn 0.696771 -0.683601 0.217254
s off
f 81//86 82//86 83//86
f 85//87 88//87 87//87
f 81//88 85//88 86//88
f 82//89 86//89 83//89
f 87//90 88//90 91//90
f 85//91 81//91 84//91
f 91//92 92//92 96//92
f 88//93 84//93 92//93
f 83//94 87//94 89//94
f 84//95 83//95 90//95
f 93//96 95//96 94//96
f 92//97 90//97 96//97
f 89//98 91//98 95//98
f 90//99 89//99 94//99
f 84//100 81//100 83//100
f 86//101 85//101 87//101
f 82//102 81//102 86//102
f 86//103 87//103 83//103
f 88//104 92//104 91//104
f 88//105 85//105 84//105
f 95//106 91//106 96//106
f 84//93 90//93 92//93
f 87//94 91//94 89//94
f 83//107 89//107 90//107
f 95//108 96//108 94//108
f 90//109 94//109 96//109
f 93//110 89//110 95//110
f 89//111 93//111 94//111
o Cube.005_Cube.006
v 0.432604 0.978630 -0.460015
v 0.383105 0.972292 -0.321205
v 0.426543 0.895986 -0.272853
v 0.496196 0.904904 -0.468179
v 0.080503 0.975518 -0.585715
v 0.029747 0.969019 -0.443380
v -0.030957 0.891942 -0.436181
v 0.038696 0.900861 -0.631507
v 0.430316 0.726803 -0.279232
v 0.499969 0.735721 -0.474559
v -0.027185 0.722759 -0.442560
v 0.042468 0.731677 -0.637887
v 0.401722 0.670122 -0.365872
v 0.433986 0.674253 -0.456350
v 0.049621 0.667010 -0.491572
v 0.081885 0.671141 -0.582050
vn 0.740059 0.606051 0.291573
vn -0.772089 0.584864 -0.248621
vn -0.022278 0.999042 0.037670
vn -0.305464 0.379496 0.873312
vn -0.941752 -0.008324 -0.336206
vn 0.310189 0.364776 -0.877907
vn -0.672753 -0.688320 -0.271329
vn 0.335570 0.042966 -0.941035
vn -0.335570 -0.042966 0.941035
vn 0.941752 0.008324 0.336206
vn 0.022278 -0.999042 -0.037669
vn 0.286813 -0.541908 -0.789984
vn -0.200756 -0.788126 0.581854
vn 0.696771 -0.683602 0.217254
vn 0.740058 0.606052 0.291574
vn -0.772089 0.584865 -0.248620
vn -0.022278 0.999042 0.037669
vn -0.319479 0.334427 0.886618
vn 0.310189 0.364776 -0.877908
vn -0.672754 -0.688318 -0.271330
vn 0.022279 -0.999042 -0.037672
vn 0.286814 -0.541910 -0.789982
vn -0.200756 -0.788127 0.581853
vn 0.696770 -0.683603 0.217254
s off
f 97//112 98//112 99//112
f 101//113 104//113 103//113
f 97//114 101//114 102//114
f 98//115 102//115 99//115
f 103//116 104//116 107//116
f 101//117 97//117 100//117
f 107//118 108//118 112//118
f 104//119 100//119 108//119
f 99//120 103//120 105//120
f 100//121 99//121 106//121
f 109//122 111//122 110//122
f 108//123 106//123 112//123
f 105//124 107//124 111//124
f 106//125 105//125 110//125
f 100//126 97//126 99//126
f 102//127 101//127 103//127
f 98//128 97//128 102//128
f 102//129 103//129 99//129
f 104//116 108//116 107//116
f 104//130 101//130 100//130
f 111//131 107//131 112//131
f 100//119 106//119 108//119
f 103//120 107//120 105//120
f 99//121 105//121 106//121
f 111//132 112//132 110//132
f 106//133 110//133 112//133
f 109//134 105//134 111//134
f 105//135 109//135 110//135
o Cube_Cube.005
v -0.350034 0.735092 -0.016873
v 0.018117 0.714516 -0.473080
v 0.228862 0.657781 -0.300454
v -0.139289 0.678357 0.155753
v -0.307104 0.968000 0.007266
v 0.061047 0.947424 -0.448942
v 0.271792 0.890689 -0.276316
v -0.096360 0.911264 0.179892
v -0.326753 0.578205 -0.057383
v -0.023398 0.561251 -0.433297
v 0.150255 0.514501 -0.291053
v -0.153100 0.531455 0.084860
v -0.359517 0.400446 -0.075806
v -0.056162 0.383491 -0.451720
v 0.117490 0.336742 -0.309476
v -0.185865 0.353696 0.066437
vn -0.757350 0.203889 -0.620363
vn 0.627616 -0.035077 -0.777732
vn 0.757350 -0.203889 0.620363
vn -0.627616 0.035077 0.777732
vn -0.652354 -0.278787 0.704778
vn 0.180331 0.978365 0.101398
vn -0.627616 0.035077 0.777733
vn 0.719454 -0.355566 0.596623
vn 0.537327 -0.345278 -0.769457
vn -0.776308 0.047114 -0.628591
vn -0.180332 -0.978365 -0.101398
vn 0.627616 -0.035077 -0.777733
vn 0.180331 0.978365 0.101399
vn 0.537327 -0.345278 -0.769456
vn -0.180331 -0.978365 -0.101399
s off
f 117//136 118//136 113//136
f 118//137 119//137 114//137
f 119//138 120//138 115//138
f 120//139 117//139 116//139
f 116//140 113//140 124//140
f 120//141 119//141 117//141
f 124//142 121//142 128//142
f 115//143 116//143 123//143
f 114//144 115//144 122//144
f 113//145 114//145 121//145
f 125//146 126//146 128//146
f 123//138 124//138 127//138
f 122//147 123//147 126//147
f 121//136 122//136 125//136
f 118//136 114//136 113//136
f 119//147 115//147 114//147
f 120//138 116//138 115//138
f 117//142 113//142 116//142
f 113//140 121//140 124//140
f 119//148 118//148 117//148
f 121//142 125//142 128//142
f 116//143 124//143 123//143
f 115//149 123//149 122//149
f 114//145 122//145 121//145
f 126//150 127//150 128//150
f 124//138 128//138 127//138
f 123//137 127//137 126//137
f 122//136 126//136 125//136
o Cube.004
v -0.199483 -0.147763 -0.056466
v -0.206150 -0.119521 0.111263
v -0.314925 -0.130932 0.148916
v -0.305543 -0.170672 -0.087103
v 0.000274 0.230567 -0.112227
v -0.006562 0.259526 0.059761
v -0.055371 0.360651 0.076462
v -0.045989 0.320910 -0.159557
v -0.487969 -0.042767 0.127193
v -0.478587 -0.082507 -0.108827
v -0.228415 0.448816 0.054739
v -0.219033 0.409075 -0.181281
v -0.515171 0.031978 0.032133
v -0.510825 0.013570 -0.077194
v -0.315414 0.410308 -0.023629
v -0.311068 0.391900 -0.132956
vn 0.160861 -0.972210 0.170092
vn 0.897434 0.439482 -0.038325
vn 0.885495 -0.451155 0.111164
vn 0.331099 -0.046288 0.942460
vn 0.462994 0.876888 -0.129244
vn 0.324344 -0.303312 -0.895992
vn -0.266473 0.948673 -0.170327
vn 0.039169 -0.165913 -0.985362
vn -0.039169 0.165913 0.985362
vn -0.462994 -0.876888 0.129244
vn -0.885496 0.451154 -0.111163
vn -0.479431 0.125114 -0.868615
vn -0.699256 0.450960 0.554685
vn -0.946238 -0.323035 0.016778
vn 0.160861 -0.972210 0.170093
vn 0.897434 0.439481 -0.038325
vn 0.885496 -0.451154 0.111163
vn 0.295410 -0.015182 0.955250
vn 0.462994 0.876888 -0.129243
vn -0.266473 0.948673 -0.170328
vn -0.885495 0.451154 -0.111164
vn -0.699257 0.450960 0.554685
vn -0.946239 -0.323034 0.016778
s off
f 129//151 130//151 131//151
f 133//152 136//152 135//152
f 129//153 133//153 134//153
f 130//154 134//154 131//154
f 135//155 136//155 139//155
f 133//156 129//156 132//156
f 139//157 140//157 144//157
f 136//158 132//158 140//158
f 131//159 135//159 137//159
f 132//160 131//160 138//160
f 141//161 143//161 142//161
f 140//162 138//162 144//162
f 137//163 139//163 143//163
f 138//164 137//164 142//164
f 132//165 129//165 131//165
f 134//166 133//166 135//166
f 130//167 129//167 134//167
f 134//168 135//168 131//168
f 136//169 140//169 139//169
f 136//156 133//156 132//156
f 143//170 139//170 144//170
f 132//158 138//158 140//158
f 135//159 139//159 137//159
f 131//160 137//160 138//160
f 143//171 144//171 142//171
f 138//162 142//162 144//162
f 141//172 137//172 143//172
f 137//173 141//173 142//173
o Cube.003
v 0.339246 0.027365 -0.450496
v 0.329398 -0.017806 -0.286675
v 0.274231 -0.119002 -0.276882
v 0.288089 -0.055440 -0.507405
v 0.164218 0.410098 -0.355487
v 0.154120 0.363780 -0.187504
v 0.046809 0.378301 -0.153432
v 0.060667 0.441863 -0.383954
v 0.095972 -0.192810 -0.307950
v 0.109830 -0.129247 -0.538472
v -0.131450 0.304494 -0.184499
v -0.117592 0.368056 -0.415022
v 0.011776 -0.139483 -0.381642
v 0.018195 -0.110040 -0.488422
v -0.163251 0.243250 -0.286632
v -0.156832 0.272693 -0.393413
vn 0.871831 -0.483097 -0.080794
vn 0.213231 0.938494 0.271591
vn 0.912184 0.377687 0.158977
vn 0.333213 -0.090840 0.938466
vn -0.405677 0.887093 0.220212
vn 0.350680 0.373550 -0.858769
vn -0.919278 0.390118 0.052305
vn 0.057855 0.265366 -0.962410
vn -0.057856 -0.265366 0.962410
vn 0.405677 -0.887093 -0.220212
vn -0.912184 -0.377687 -0.158977
vn -0.479589 -0.001493 -0.877492
vn -0.731689 -0.459575 0.503410
vn -0.336146 -0.902556 -0.269070
vn 0.912184 0.377687 0.158976
vn 0.288082 -0.104552 0.951881
vn -0.405677 0.887092 0.220212
vn 0.350679 0.373550 -0.858769
vn -0.919278 0.390119 0.052304
vn 0.057856 0.265367 -0.962410
vn 0.405677 -0.887092 -0.220212
vn -0.479590 -0.001493 -0.877491
vn -0.336145 -0.902556 -0.269071
s off
f 145//174 146//174 147//174
f 149//175 152//175 151//175
f 145//176 149//176 150//176
f 146//177 150//177 147//177
f 151//178 152//178 155//178
f 149//179 145//179 148//179
f 155//180 156//180 160//180
f 152//181 148//181 156//181
f 147//182 151//182 153//182
f 148//183 147//183 154//183
f 157//184 159//184 158//184
f 156//185 154//185 160//185
f 153//186 155//186 159//186
f 154//187 153//187 158//187
f 148//174 145//174 147//174
f 150//175 149//175 151//175
f 146//188 145//188 150//188
f 150//189 151//189 147//189
f 152//190 156//190 155//190
f 152//191 149//191 148//191
f 159//192 155//192 160//192
f 148//193 154//193 156//193
f 151//182 155//182 153//182
f 147//194 153//194 154//194
f 159//184 160//184 158//184
f 154//195 158//195 160//195
f 157//186 153//186 159//186
f 153//196 157//196 158//196
o Cube.002
v 0.357701 -0.568910 -0.480524
v 0.357701 -0.568910 -0.319955
v 0.275647 -0.630445 -0.282722
v 0.275647 -0.630445 -0.508668
v 0.357701 -0.161925 -0.480524
v 0.357701 -0.161925 -0.315876
v 0.275647 -0.101630 -0.282723
v 0.275647 -0.101630 -0.508668
v 0.091306 -0.630445 -0.282723
v 0.091306 -0.630445 -0.508668
v 0.091306 -0.101630 -0.282723
v 0.091306 -0.101630 -0.508668
v 0.026806 -0.568910 -0.358377
v 0.026806 -0.568910 -0.463038
v 0.026806 -0.161925 -0.358377
v 0.026806 -0.161925 -0.463038
vn 0.599966 -0.800025 0.000000
vn 0.592139 0.805836 0.000000
vn 1.000000 0.000000 0.000001
vn 0.418838 -0.009099 0.908015
vn -0.000000 1.000000 0.000000
vn 0.324445 0.000000 -0.945904
vn -0.682893 0.730518 -0.000000
vn 0.000000 0.000000 -1.000000
vn -0.000000 0.000000 1.000000
vn 0.000000 -1.000000 0.000000
vn -1.000000 -0.000000 -0.000000
vn -0.577538 -0.000000 -0.816364
vn -0.760980 -0.000000 0.648775
vn -0.690286 -0.723537 0.000000
vn 0.599967 -0.800025 0.000000
vn 1.000000 0.000000 0.000000
vn 0.374622 0.000000 0.927177
vn 0.324446 0.000000 -0.945904
vn -1.000000 -0.000000 -0.000001
vn -0.577537 0.000000 -0.816364
vn -0.690286 -0.723537 -0.000001
s off
f 161//197 162//197 163//197
f 165//198 168//198 167//198
f 161//199 165//199 166//199
f 162//200 166//200 163//200
f 167//201 168//201 171//201
f 165//202 161//202 164//202
f 171//203 172//203 176//203
f 168//204 164//204 172//204
f 163//205 167//205 169//205
f 164//206 163//206 170//206
f 173//207 175//207 174//207
f 172//208 170//208 176//208
f 169//209 171//209 175//209
f 170//210 169//210 174//210
f 164//211 161//211 163//211
f 166//198 165//198 167//198
f 162//212 161//212 166//212
f 166//213 167//213 163//213
f 168//201 172//201 171//201
f 168//214 165//214 164//214
f 175//203 171//203 176//203
f 164//204 170//204 172//204
f 167//205 171//205 169//205
f 163//206 169//206 170//206
f 175//215 176//215 174//215
f 170//216 174//216 176//216
f 173//209 169//209 175//209
f 169//217 173//217 174//217
o Cube.001
v -0.417365 -0.618198 0.081148
v -0.406808 -0.577394 0.236087
v -0.502014 -0.595973 0.286051
v -0.516868 -0.653390 0.068028
v -0.282096 -0.249376 -0.025198
v -0.271271 -0.207536 0.133676
v -0.326253 -0.116745 0.147870
v -0.341107 -0.174162 -0.070153
v -0.675452 -0.533685 0.281464
v -0.690307 -0.591102 0.063441
v -0.499691 -0.054458 0.143284
v -0.514545 -0.111875 -0.074740
v -0.720658 -0.475351 0.190778
v -0.727539 -0.501948 0.089787
v -0.585389 -0.106530 0.084432
v -0.592270 -0.133126 -0.016559
vn 0.298580 -0.927731 0.223976
vn 0.824952 0.530192 -0.195834
vn 0.940855 -0.337893 0.024882
vn 0.450737 0.080975 0.888977
vn 0.332368 0.906230 -0.261303
vn 0.243068 -0.349999 -0.904665
vn -0.399703 0.892762 -0.207878
vn -0.065744 -0.254118 -0.964936
vn 0.065744 0.254118 0.964936
vn -0.332368 -0.906230 0.261303
vn -0.940856 0.337893 -0.024882
vn -0.597051 -0.012307 -0.802109
vn -0.673319 0.421996 0.607092
vn -0.889940 -0.422448 0.171887
vn 0.298580 -0.927731 0.223978
vn 0.413422 0.109031 0.903988
vn -0.399703 0.892762 -0.207879
vn -0.889941 -0.422446 0.171887
s off
f 177//218 178//218 179//218
f 181//219 184//219 183//219
f 177//220 181//220 182//220
f 178//221 182//221 179//221
f 183//222 184//222 187//222
f 181//223 177//223 180//223
f 187//224 188//224 192//224
f 184//225 180//225 188//225
f 179//226 183//226 185//226
f 180//227 179//227 186//227
f 189//228 191//228 190//228
f 188//229 186//229 192//229
f 185//230 187//230 191//230
f 186//231 185//231 190//231
f 180//232 177//232 179//232
f 182//219 181//219 183//219
f 178//220 177//220 182//220
f 182//233 183//233 179//233
f 184//222 188//222 187//222
f 184//223 181//223 180//223
f 191//234 187//234 192//234
f 180//225 186//225 188//225
f 183//226 187//226 185//226
f 179//227 185//227 186//227
f 191//228 192//228 190//228
f 186//229 190//229 192//229
f 189//230 185//230 191//230
f 185//235 189//235 190//235
