# Blender v2.69 (sub 0) OBJ File: ''
# www.blender.org
mtllib targeting_sphere.mtl
o Sphere
v -0.382683 0.923880 0.000000
v -0.707107 0.707107 0.000000
v -0.923880 0.382683 0.000000
v -1.000000 -0.000000 0.000000
v -0.353553 0.923880 -0.146447
v -0.653281 0.707107 -0.270598
v -0.853553 0.382683 -0.353553
v -0.923880 -0.000000 -0.382683
v -0.270598 0.923880 -0.270598
v -0.500000 0.707107 -0.500000
v -0.653281 0.382683 -0.653281
v -0.707107 -0.000000 -0.707107
v -0.146447 0.923880 -0.353553
v -0.270598 0.707107 -0.653281
v -0.353553 0.382683 -0.853553
v -0.382683 -0.000000 -0.923879
v -0.000000 0.923880 -0.382683
v -0.000000 0.707107 -0.707107
v -0.000000 0.382683 -0.923879
v -0.000000 -0.000000 -1.000000
v -0.000000 1.000000 0.000000
v 0.146446 0.923880 -0.353553
v 0.270598 0.707107 -0.653281
v 0.353553 0.382683 -0.853553
v 0.382683 -0.000000 -0.923879
v 0.270598 0.923880 -0.270598
v 0.500000 0.707107 -0.500000
v 0.653281 0.382683 -0.653281
v 0.707106 -0.000000 -0.707106
v 0.353553 0.923880 -0.146446
v 0.653281 0.707107 -0.270598
v 0.853553 0.382683 -0.353553
v 0.923879 -0.000000 -0.382683
v 0.382683 0.923880 0.000000
v 0.707106 0.707107 0.000000
v 0.923879 0.382683 0.000000
v 0.999999 -0.000000 0.000000
v 0.353553 0.923880 0.146447
v 0.653281 0.707107 0.270598
v 0.853553 0.382683 0.353553
v 0.923879 -0.000000 0.382683
v 0.270598 0.923880 0.270598
v 0.500000 0.707107 0.500000
v 0.653281 0.382683 0.653281
v 0.707106 -0.000000 0.707107
v 0.146446 0.923880 0.353553
v 0.270598 0.707107 0.653281
v 0.353553 0.382683 0.853553
v 0.382683 -0.000000 0.923879
v -0.000000 0.923880 0.382683
v -0.000000 0.707107 0.707107
v -0.000000 0.382683 0.923879
v -0.000000 -0.000000 0.999999
v -0.146447 0.923880 0.353553
v -0.270598 0.707107 0.653281
v -0.353554 0.382683 0.853553
v -0.382683 -0.000000 0.923879
v -0.270598 0.923880 0.270598
v -0.500000 0.707107 0.500000
v -0.653281 0.382683 0.653281
v -0.707107 -0.000000 0.707106
v -0.353553 0.923880 0.146446
v -0.653281 0.707107 0.270598
v -0.853553 0.382683 0.353553
v -0.923879 -0.000000 0.382683
vn -0.980785 0.195090 0.000001
vn -0.927274 0.374340 0.000000
vn -0.906127 0.195090 -0.375330
vn -0.718833 0.695151 0.000000
vn -0.856685 0.374340 -0.354839
vn -0.403088 0.915159 0.000000
vn -0.664113 0.695151 -0.275094
vn -0.693520 0.195090 -0.693520
vn -0.655660 0.374340 -0.655660
vn -0.372387 0.915159 -0.154241
vn -0.508286 0.695151 -0.508286
vn -0.375330 0.195090 -0.906128
vn -0.354839 0.374340 -0.856685
vn -0.285012 0.915159 -0.285012
vn -0.275094 0.695151 -0.664113
vn -0.000000 0.195090 -0.980785
vn 0.000000 0.374340 -0.927274
vn -0.154241 0.915159 -0.372387
vn 0.000000 0.695151 -0.718833
vn 0.375330 0.195090 -0.906127
vn 0.354839 0.374340 -0.856685
vn 0.000000 0.915159 -0.403088
vn 0.275094 0.695151 -0.664113
vn 0.693520 0.195090 -0.693520
vn 0.655660 0.374340 -0.655660
vn 0.154241 0.915159 -0.372387
vn 0.508286 0.695151 -0.508286
vn 0.906128 0.195090 -0.375330
vn 0.856685 0.374340 -0.354839
vn 0.285012 0.915159 -0.285012
vn 0.664113 0.695151 -0.275094
vn 0.980785 0.195090 0.000000
vn 0.927274 0.374340 0.000000
vn 0.372387 0.915159 -0.154241
vn 0.718833 0.695151 0.000000
vn 0.906127 0.195090 0.375331
vn 0.856685 0.374340 0.354839
vn 0.403088 0.915159 0.000000
vn 0.664113 0.695151 0.275094
vn 0.693520 0.195090 0.693520
vn 0.655660 0.374340 0.655660
vn 0.372387 0.915159 0.154241
vn 0.508286 0.695151 0.508286
vn 0.375330 0.195090 0.906128
vn 0.354839 0.374340 0.856685
vn 0.285012 0.915159 0.285012
vn 0.275094 0.695151 0.664113
vn -0.000000 0.195090 0.980785
vn 0.000000 0.374340 0.927274
vn 0.154241 0.915159 0.372387
vn 0.000000 0.695151 0.718833
vn -0.375331 0.195090 0.906127
vn -0.354839 0.374340 0.856685
vn 0.000000 0.915159 0.403088
vn -0.275094 0.695151 0.664113
vn -0.693520 0.195090 0.693520
vn -0.655660 0.374340 0.655660
vn -0.154241 0.915159 0.372387
vn -0.508286 0.695151 0.508286
vn -0.906127 0.195090 0.375331
vn -0.856685 0.374340 0.354839
vn -0.285012 0.915159 0.285012
vn -0.664113 0.695151 0.275094
vn 0.000000 1.000000 0.000000
vn -0.372387 0.915159 0.154241
usemtl None
s 1
f 4//1 3//2 8//3
f 3//2 2//4 7//5
f 2//4 1//6 6//7
f 8//3 7//5 12//8
f 7//5 6//7 11//9
f 6//7 5//10 10//11
f 12//8 11//9 16//12
f 11//9 10//11 15//13
f 10//11 9//14 14//15
f 16//12 15//13 20//16
f 15//13 14//15 19//17
f 14//15 13//18 18//19
f 20//16 19//17 25//20
f 19//17 18//19 24//21
f 18//19 17//22 23//23
f 25//20 24//21 29//24
f 24//21 23//23 28//25
f 23//23 22//26 27//27
f 29//24 28//25 33//28
f 28//25 27//27 32//29
f 27//27 26//30 31//31
f 33//28 32//29 37//32
f 32//29 31//31 36//33
f 31//31 30//34 35//35
f 37//32 36//33 41//36
f 36//33 35//35 40//37
f 35//35 34//38 39//39
f 41//36 40//37 45//40
f 40//37 39//39 44//41
f 39//39 38//42 43//43
f 45//40 44//41 49//44
f 44//41 43//43 48//45
f 43//43 42//46 47//47
f 49//44 48//45 53//48
f 48//45 47//47 52//49
f 47//47 46//50 51//51
f 53//48 52//49 57//52
f 52//49 51//51 56//53
f 51//51 50//54 55//55
f 57//52 56//53 61//56
f 56//53 55//55 60//57
f 55//55 54//58 59//59
f 61//56 60//57 65//60
f 60//57 59//59 64//61
f 59//59 58//62 63//63
f 1//6 21//64 5//10
f 5//10 21//64 9//14
f 9//14 21//64 13//18
f 13//18 21//64 17//22
f 17//22 21//64 22//26
f 22//26 21//64 26//30
f 26//30 21//64 30//34
f 30//34 21//64 34//38
f 34//38 21//64 38//42
f 38//42 21//64 42//46
f 42//46 21//64 46//50
f 46//50 21//64 50//54
f 50//54 21//64 54//58
f 54//58 21//64 58//62
f 58//62 21//64 62//65
f 65//60 64//61 4//1
f 64//61 63//63 3//2
f 63//63 62//65 2//4
f 62//65 21//64 1//6
f 3//2 7//5 8//3
f 2//4 6//7 7//5
f 1//6 5//10 6//7
f 7//5 11//9 12//8
f 6//7 10//11 11//9
f 5//10 9//14 10//11
f 11//9 15//13 16//12
f 10//11 14//15 15//13
f 9//14 13//18 14//15
f 15//13 19//17 20//16
f 14//15 18//19 19//17
f 13//18 17//22 18//19
f 19//17 24//21 25//20
f 18//19 23//23 24//21
f 17//22 22//26 23//23
f 24//21 28//25 29//24
f 23//23 27//27 28//25
f 22//26 26//30 27//27
f 28//25 32//29 33//28
f 27//27 31//31 32//29
f 26//30 30//34 31//31
f 32//29 36//33 37//32
f 31//31 35//35 36//33
f 30//34 34//38 35//35
f 36//33 40//37 41//36
f 35//35 39//39 40//37
f 34//38 38//42 39//39
f 40//37 44//41 45//40
f 39//39 43//43 44//41
f 38//42 42//46 43//43
f 44//41 48//45 49//44
f 43//43 47//47 48//45
f 42//46 46//50 47//47
f 48//45 52//49 53//48
f 47//47 51//51 52//49
f 46//50 50//54 51//51
f 52//49 56//53 57//52
f 51//51 55//55 56//53
f 50//54 54//58 55//55
f 56//53 60//57 61//56
f 55//55 59//59 60//57
f 54//58 58//62 59//59
f 60//57 64//61 65//60
f 59//59 63//63 64//61
f 58//62 62//65 63//63
f 64//61 3//2 4//1
f 63//63 2//4 3//2
f 62//65 1//6 2//4
